<?xml version="1.0" encoding="utf-8" standalone="no"?>
<!DOCTYPE svg PUBLIC "-//W3C//DTD SVG 1.1//EN"
  "http://www.w3.org/Graphics/SVG/1.1/DTD/svg11.dtd">
<!-- Created with matplotlib (http://matplotlib.org/) -->
<svg height="504pt" version="1.1" viewBox="0 0 936 504" width="936pt" xmlns="http://www.w3.org/2000/svg" xmlns:xlink="http://www.w3.org/1999/xlink">
 <defs>
  <style type="text/css">
*{stroke-linecap:butt;stroke-linejoin:round;}
  </style>
 </defs>
 <g id="figure_1">
  <g id="patch_1">
   <path d="M 0 504 
L 936 504 
L 936 0 
L 0 0 
z
" style="fill:#ffffff;"/>
  </g>
  <g id="axes_1">
   <g id="patch_2">
    <path d="M 117 441 
L 842.4 441 
L 842.4 60.48 
L 117 60.48 
z
" style="fill:#eaeaf2;"/>
   </g>
   <g id="matplotlib.axis_1">
    <g id="xtick_1">
     <g id="line2d_1">
      <path clip-path="url(#pe22b30f863)" d="M 149.972727 441 
L 149.972727 60.48 
" style="fill:none;stroke:#ffffff;stroke-linecap:round;"/>
     </g>
     <g id="line2d_2"/>
     <g id="text_1">
      <!-- 0 -->
      <defs>
       <path d="M 4.15625 35.296875 
Q 4.15625 48 6.765625 55.734375 
Q 9.375 63.484375 14.515625 67.671875 
Q 19.671875 71.875 27.484375 71.875 
Q 33.25 71.875 37.59375 69.546875 
Q 41.9375 67.234375 44.765625 62.859375 
Q 47.609375 58.5 49.21875 52.21875 
Q 50.828125 45.953125 50.828125 35.296875 
Q 50.828125 22.703125 48.234375 14.96875 
Q 45.65625 7.234375 40.5 3 
Q 35.359375 -1.21875 27.484375 -1.21875 
Q 17.140625 -1.21875 11.234375 6.203125 
Q 4.15625 15.140625 4.15625 35.296875 
z
M 13.1875 35.296875 
Q 13.1875 17.671875 17.3125 11.828125 
Q 21.4375 6 27.484375 6 
Q 33.546875 6 37.671875 11.859375 
Q 41.796875 17.71875 41.796875 35.296875 
Q 41.796875 52.984375 37.671875 58.78125 
Q 33.546875 64.59375 27.390625 64.59375 
Q 21.34375 64.59375 17.71875 59.46875 
Q 13.1875 52.9375 13.1875 35.296875 
z
" id="ArialMT-30"/>
      </defs>
      <g style="fill:#262626;" transform="translate(147.192259 455.157812)scale(0.1 -0.1)">
       <use xlink:href="#ArialMT-30"/>
      </g>
     </g>
    </g>
    <g id="xtick_2">
     <g id="line2d_3">
      <path clip-path="url(#pe22b30f863)" d="M 232.611141 441 
L 232.611141 60.48 
" style="fill:none;stroke:#ffffff;stroke-linecap:round;"/>
     </g>
     <g id="line2d_4"/>
     <g id="text_2">
      <!-- 50 -->
      <defs>
       <path d="M 4.15625 18.75 
L 13.375 19.53125 
Q 14.40625 12.796875 18.140625 9.390625 
Q 21.875 6 27.15625 6 
Q 33.5 6 37.890625 10.78125 
Q 42.28125 15.578125 42.28125 23.484375 
Q 42.28125 31 38.0625 35.34375 
Q 33.84375 39.703125 27 39.703125 
Q 22.75 39.703125 19.328125 37.765625 
Q 15.921875 35.84375 13.96875 32.765625 
L 5.71875 33.84375 
L 12.640625 70.609375 
L 48.25 70.609375 
L 48.25 62.203125 
L 19.671875 62.203125 
L 15.828125 42.96875 
Q 22.265625 47.46875 29.34375 47.46875 
Q 38.71875 47.46875 45.15625 40.96875 
Q 51.609375 34.46875 51.609375 24.265625 
Q 51.609375 14.546875 45.953125 7.46875 
Q 39.0625 -1.21875 27.15625 -1.21875 
Q 17.390625 -1.21875 11.203125 4.25 
Q 5.03125 9.71875 4.15625 18.75 
z
" id="ArialMT-35"/>
      </defs>
      <g style="fill:#262626;" transform="translate(227.050204 455.157812)scale(0.1 -0.1)">
       <use xlink:href="#ArialMT-35"/>
       <use x="55.615234" xlink:href="#ArialMT-30"/>
      </g>
     </g>
    </g>
    <g id="xtick_3">
     <g id="line2d_5">
      <path clip-path="url(#pe22b30f863)" d="M 315.249556 441 
L 315.249556 60.48 
" style="fill:none;stroke:#ffffff;stroke-linecap:round;"/>
     </g>
     <g id="line2d_6"/>
     <g id="text_3">
      <!-- 100 -->
      <defs>
       <path d="M 37.25 0 
L 28.46875 0 
L 28.46875 56 
Q 25.296875 52.984375 20.140625 49.953125 
Q 14.984375 46.921875 10.890625 45.40625 
L 10.890625 53.90625 
Q 18.265625 57.375 23.78125 62.296875 
Q 29.296875 67.234375 31.59375 71.875 
L 37.25 71.875 
z
" id="ArialMT-31"/>
      </defs>
      <g style="fill:#262626;" transform="translate(306.908149 455.157812)scale(0.1 -0.1)">
       <use xlink:href="#ArialMT-31"/>
       <use x="55.615234" xlink:href="#ArialMT-30"/>
       <use x="111.230469" xlink:href="#ArialMT-30"/>
      </g>
     </g>
    </g>
    <g id="xtick_4">
     <g id="line2d_7">
      <path clip-path="url(#pe22b30f863)" d="M 397.88797 441 
L 397.88797 60.48 
" style="fill:none;stroke:#ffffff;stroke-linecap:round;"/>
     </g>
     <g id="line2d_8"/>
     <g id="text_4">
      <!-- 150 -->
      <g style="fill:#262626;" transform="translate(389.546564 455.157812)scale(0.1 -0.1)">
       <use xlink:href="#ArialMT-31"/>
       <use x="55.615234" xlink:href="#ArialMT-35"/>
       <use x="111.230469" xlink:href="#ArialMT-30"/>
      </g>
     </g>
    </g>
    <g id="xtick_5">
     <g id="line2d_9">
      <path clip-path="url(#pe22b30f863)" d="M 480.526384 441 
L 480.526384 60.48 
" style="fill:none;stroke:#ffffff;stroke-linecap:round;"/>
     </g>
     <g id="line2d_10"/>
     <g id="text_5">
      <!-- 200 -->
      <defs>
       <path d="M 50.34375 8.453125 
L 50.34375 0 
L 3.03125 0 
Q 2.9375 3.171875 4.046875 6.109375 
Q 5.859375 10.9375 9.828125 15.625 
Q 13.8125 20.3125 21.34375 26.46875 
Q 33.015625 36.03125 37.109375 41.625 
Q 41.21875 47.21875 41.21875 52.203125 
Q 41.21875 57.421875 37.46875 61 
Q 33.734375 64.59375 27.734375 64.59375 
Q 21.390625 64.59375 17.578125 60.78125 
Q 13.765625 56.984375 13.71875 50.25 
L 4.6875 51.171875 
Q 5.609375 61.28125 11.65625 66.578125 
Q 17.71875 71.875 27.9375 71.875 
Q 38.234375 71.875 44.234375 66.15625 
Q 50.25 60.453125 50.25 52 
Q 50.25 47.703125 48.484375 43.546875 
Q 46.734375 39.40625 42.65625 34.8125 
Q 38.578125 30.21875 29.109375 22.21875 
Q 21.1875 15.578125 18.9375 13.203125 
Q 16.703125 10.84375 15.234375 8.453125 
z
" id="ArialMT-32"/>
      </defs>
      <g style="fill:#262626;" transform="translate(472.184978 455.157812)scale(0.1 -0.1)">
       <use xlink:href="#ArialMT-32"/>
       <use x="55.615234" xlink:href="#ArialMT-30"/>
       <use x="111.230469" xlink:href="#ArialMT-30"/>
      </g>
     </g>
    </g>
    <g id="xtick_6">
     <g id="line2d_11">
      <path clip-path="url(#pe22b30f863)" d="M 563.164798 441 
L 563.164798 60.48 
" style="fill:none;stroke:#ffffff;stroke-linecap:round;"/>
     </g>
     <g id="line2d_12"/>
     <g id="text_6">
      <!-- 250 -->
      <g style="fill:#262626;" transform="translate(554.823392 455.157812)scale(0.1 -0.1)">
       <use xlink:href="#ArialMT-32"/>
       <use x="55.615234" xlink:href="#ArialMT-35"/>
       <use x="111.230469" xlink:href="#ArialMT-30"/>
      </g>
     </g>
    </g>
    <g id="xtick_7">
     <g id="line2d_13">
      <path clip-path="url(#pe22b30f863)" d="M 645.803213 441 
L 645.803213 60.48 
" style="fill:none;stroke:#ffffff;stroke-linecap:round;"/>
     </g>
     <g id="line2d_14"/>
     <g id="text_7">
      <!-- 300 -->
      <defs>
       <path d="M 4.203125 18.890625 
L 12.984375 20.0625 
Q 14.5 12.59375 18.140625 9.296875 
Q 21.78125 6 27 6 
Q 33.203125 6 37.46875 10.296875 
Q 41.75 14.59375 41.75 20.953125 
Q 41.75 27 37.796875 30.921875 
Q 33.84375 34.859375 27.734375 34.859375 
Q 25.25 34.859375 21.53125 33.890625 
L 22.515625 41.609375 
Q 23.390625 41.5 23.921875 41.5 
Q 29.546875 41.5 34.03125 44.421875 
Q 38.53125 47.359375 38.53125 53.46875 
Q 38.53125 58.296875 35.25 61.46875 
Q 31.984375 64.65625 26.8125 64.65625 
Q 21.6875 64.65625 18.265625 61.421875 
Q 14.84375 58.203125 13.875 51.765625 
L 5.078125 53.328125 
Q 6.6875 62.15625 12.390625 67.015625 
Q 18.109375 71.875 26.609375 71.875 
Q 32.46875 71.875 37.390625 69.359375 
Q 42.328125 66.84375 44.9375 62.5 
Q 47.5625 58.15625 47.5625 53.265625 
Q 47.5625 48.640625 45.0625 44.828125 
Q 42.578125 41.015625 37.703125 38.765625 
Q 44.046875 37.3125 47.5625 32.6875 
Q 51.078125 28.078125 51.078125 21.140625 
Q 51.078125 11.765625 44.234375 5.25 
Q 37.40625 -1.265625 26.953125 -1.265625 
Q 17.53125 -1.265625 11.296875 4.34375 
Q 5.078125 9.96875 4.203125 18.890625 
z
" id="ArialMT-33"/>
      </defs>
      <g style="fill:#262626;" transform="translate(637.461806 455.157812)scale(0.1 -0.1)">
       <use xlink:href="#ArialMT-33"/>
       <use x="55.615234" xlink:href="#ArialMT-30"/>
       <use x="111.230469" xlink:href="#ArialMT-30"/>
      </g>
     </g>
    </g>
    <g id="xtick_8">
     <g id="line2d_15">
      <path clip-path="url(#pe22b30f863)" d="M 728.441627 441 
L 728.441627 60.48 
" style="fill:none;stroke:#ffffff;stroke-linecap:round;"/>
     </g>
     <g id="line2d_16"/>
     <g id="text_8">
      <!-- 350 -->
      <g style="fill:#262626;" transform="translate(720.100221 455.157812)scale(0.1 -0.1)">
       <use xlink:href="#ArialMT-33"/>
       <use x="55.615234" xlink:href="#ArialMT-35"/>
       <use x="111.230469" xlink:href="#ArialMT-30"/>
      </g>
     </g>
    </g>
    <g id="xtick_9">
     <g id="line2d_17">
      <path clip-path="url(#pe22b30f863)" d="M 811.080041 441 
L 811.080041 60.48 
" style="fill:none;stroke:#ffffff;stroke-linecap:round;"/>
     </g>
     <g id="line2d_18"/>
     <g id="text_9">
      <!-- 400 -->
      <defs>
       <path d="M 32.328125 0 
L 32.328125 17.140625 
L 1.265625 17.140625 
L 1.265625 25.203125 
L 33.9375 71.578125 
L 41.109375 71.578125 
L 41.109375 25.203125 
L 50.78125 25.203125 
L 50.78125 17.140625 
L 41.109375 17.140625 
L 41.109375 0 
z
M 32.328125 25.203125 
L 32.328125 57.46875 
L 9.90625 25.203125 
z
" id="ArialMT-34"/>
      </defs>
      <g style="fill:#262626;" transform="translate(802.738635 455.157812)scale(0.1 -0.1)">
       <use xlink:href="#ArialMT-34"/>
       <use x="55.615234" xlink:href="#ArialMT-30"/>
       <use x="111.230469" xlink:href="#ArialMT-30"/>
      </g>
     </g>
    </g>
   </g>
   <g id="matplotlib.axis_2">
    <g id="ytick_1">
     <g id="line2d_19">
      <path clip-path="url(#pe22b30f863)" d="M 117 441 
L 842.4 441 
" style="fill:none;stroke:#ffffff;stroke-linecap:round;"/>
     </g>
     <g id="line2d_20"/>
     <g id="text_10">
      <!-- −1 -->
      <defs>
       <path d="M 52.828125 31.203125 
L 5.5625 31.203125 
L 5.5625 39.40625 
L 52.828125 39.40625 
z
" id="ArialMT-2212"/>
      </defs>
      <g style="fill:#262626;" transform="translate(98.598438 444.578906)scale(0.1 -0.1)">
       <use xlink:href="#ArialMT-2212"/>
       <use x="58.398438" xlink:href="#ArialMT-31"/>
      </g>
     </g>
    </g>
    <g id="ytick_2">
     <g id="line2d_21">
      <path clip-path="url(#pe22b30f863)" d="M 117 377.58 
L 842.4 377.58 
" style="fill:none;stroke:#ffffff;stroke-linecap:round;"/>
     </g>
     <g id="line2d_22"/>
     <g id="text_11">
      <!-- 0 -->
      <g style="fill:#262626;" transform="translate(104.439063 381.158906)scale(0.1 -0.1)">
       <use xlink:href="#ArialMT-30"/>
      </g>
     </g>
    </g>
    <g id="ytick_3">
     <g id="line2d_23">
      <path clip-path="url(#pe22b30f863)" d="M 117 314.16 
L 842.4 314.16 
" style="fill:none;stroke:#ffffff;stroke-linecap:round;"/>
     </g>
     <g id="line2d_24"/>
     <g id="text_12">
      <!-- 1 -->
      <g style="fill:#262626;" transform="translate(104.439063 317.738906)scale(0.1 -0.1)">
       <use xlink:href="#ArialMT-31"/>
      </g>
     </g>
    </g>
    <g id="ytick_4">
     <g id="line2d_25">
      <path clip-path="url(#pe22b30f863)" d="M 117 250.74 
L 842.4 250.74 
" style="fill:none;stroke:#ffffff;stroke-linecap:round;"/>
     </g>
     <g id="line2d_26"/>
     <g id="text_13">
      <!-- 2 -->
      <g style="fill:#262626;" transform="translate(104.439063 254.318906)scale(0.1 -0.1)">
       <use xlink:href="#ArialMT-32"/>
      </g>
     </g>
    </g>
    <g id="ytick_5">
     <g id="line2d_27">
      <path clip-path="url(#pe22b30f863)" d="M 117 187.32 
L 842.4 187.32 
" style="fill:none;stroke:#ffffff;stroke-linecap:round;"/>
     </g>
     <g id="line2d_28"/>
     <g id="text_14">
      <!-- 3 -->
      <g style="fill:#262626;" transform="translate(104.439063 190.898906)scale(0.1 -0.1)">
       <use xlink:href="#ArialMT-33"/>
      </g>
     </g>
    </g>
    <g id="ytick_6">
     <g id="line2d_29">
      <path clip-path="url(#pe22b30f863)" d="M 117 123.9 
L 842.4 123.9 
" style="fill:none;stroke:#ffffff;stroke-linecap:round;"/>
     </g>
     <g id="line2d_30"/>
     <g id="text_15">
      <!-- 4 -->
      <g style="fill:#262626;" transform="translate(104.439063 127.478906)scale(0.1 -0.1)">
       <use xlink:href="#ArialMT-34"/>
      </g>
     </g>
    </g>
    <g id="ytick_7">
     <g id="line2d_31">
      <path clip-path="url(#pe22b30f863)" d="M 117 60.48 
L 842.4 60.48 
" style="fill:none;stroke:#ffffff;stroke-linecap:round;"/>
     </g>
     <g id="line2d_32"/>
     <g id="text_16">
      <!-- 5 -->
      <g style="fill:#262626;" transform="translate(104.439063 64.058906)scale(0.1 -0.1)">
       <use xlink:href="#ArialMT-35"/>
      </g>
     </g>
    </g>
   </g>
   <g id="line2d_33">
    <path clip-path="url(#pe22b30f863)" d="M 149.972727 393.628089 
L 151.625496 394.147887 
L 153.278264 397.415367 
L 154.931032 382.945233 
L 156.5838 382.283601 
L 158.236569 324.082862 
L 159.889337 373.736335 
L 161.542105 407.366324 
L 163.194874 391.037046 
L 164.847642 365.620015 
L 166.50041 305.489078 
L 168.153178 391.354216 
L 169.805947 395.419532 
L 171.458715 363.705918 
L 173.111483 370.965125 
L 174.764252 355.226887 
L 176.41702 380.377865 
L 178.069788 361.295324 
L 179.722556 379.303291 
L 181.375325 398.587502 
L 183.028093 345.091003 
L 184.680861 359.200851 
L 186.33363 378.298688 
L 187.986398 415.777279 
L 189.639166 370.166863 
L 191.291934 363.44456 
L 192.944703 380.764099 
L 194.597471 371.446218 
L 196.250239 396.217971 
L 197.903008 382.791314 
L 199.555776 318.873999 
L 201.208544 387.710924 
L 204.514081 368.432618 
L 206.166849 397.856926 
L 207.819617 360.154255 
L 209.472386 368.123653 
L 211.125154 365.741941 
L 212.777922 382.337082 
L 214.43069 395.400316 
L 216.083459 378.413408 
L 217.736227 397.125228 
L 219.388995 363.2639 
L 221.041763 367.351876 
L 222.694532 386.489738 
L 224.3473 350.476069 
L 226.000068 374.007456 
L 227.652837 357.057069 
L 229.305605 392.280599 
L 230.958373 417.535136 
L 232.611141 373.751702 
L 234.26391 385.042758 
L 235.916678 385.771452 
L 237.569446 394.877663 
L 239.222215 352.423613 
L 240.874983 363.558789 
L 242.527751 328.765422 
L 244.180519 362.606863 
L 245.833288 384.406254 
L 247.486056 380.140526 
L 249.138824 412.504325 
L 250.791593 385.74444 
L 252.444361 368.128609 
L 254.097129 373.171358 
L 255.749897 385.389436 
L 257.402666 392.162986 
L 259.055434 370.949988 
L 260.708202 383.607591 
L 262.360971 390.26333 
L 264.013739 402.168204 
L 265.666507 416.104665 
L 267.319275 386.809531 
L 268.972044 391.793262 
L 270.624812 399.60514 
L 272.27758 384.04709 
L 273.930349 404.387233 
L 277.235885 325.098681 
L 278.888653 382.82353 
L 280.541422 398.36379 
L 282.19419 346.534089 
L 283.846958 382.419151 
L 285.499727 389.331898 
L 287.152495 385.206098 
L 288.805263 408.885572 
L 290.458031 356.20882 
L 292.1108 391.270922 
L 293.763568 370.388735 
L 295.416336 367.371174 
L 297.069105 390.985366 
L 298.721873 359.327107 
L 300.374641 378.480794 
L 302.027409 367.465382 
L 303.680178 365.788197 
L 305.332946 391.725791 
L 306.985714 365.167211 
L 308.638483 370.707434 
L 310.291251 378.865735 
L 311.944019 382.348897 
L 313.596787 359.148851 
L 315.249556 378.7691 
L 316.902324 388.659908 
L 318.555092 400.324447 
L 320.207861 379.419584 
L 321.860629 408.564461 
L 323.513397 357.688033 
L 325.166165 363.856858 
L 326.818934 368.657059 
L 328.471702 386.639745 
L 330.12447 381.03807 
L 331.777239 390.405955 
L 333.430007 368.478758 
L 335.082775 383.377023 
L 336.735543 381.799201 
L 338.388312 411.231927 
L 340.04108 389.225533 
L 341.693848 392.227577 
L 343.346617 418.233246 
L 344.999385 371.051615 
L 346.652153 364.293879 
L 348.304921 400.57059 
L 349.95769 392.112758 
L 351.610458 386.749236 
L 353.263226 365.754589 
L 354.915995 378.074761 
L 356.568763 373.981262 
L 358.221531 408.253739 
L 359.874299 383.872487 
L 361.527068 402.103186 
L 363.179836 353.259414 
L 364.832604 389.161316 
L 366.485373 361.709452 
L 368.138141 363.314142 
L 369.790909 304.806576 
L 371.443677 356.226715 
L 373.096446 372.344936 
L 374.749214 396.234815 
L 376.401982 363.536587 
L 378.054751 391.515233 
L 379.707519 397.21792 
L 381.360287 361.653926 
L 383.013055 374.584158 
L 384.665824 386.367939 
L 386.318592 350.407256 
L 387.97136 376.395787 
L 389.624129 381.756899 
L 391.276897 359.701392 
L 392.929665 384.501853 
L 394.582433 360.606294 
L 396.235202 370.363463 
L 397.88797 386.304727 
L 399.540738 377.794442 
L 402.846275 403.199921 
L 404.499043 384.809064 
L 406.151811 364.403457 
L 407.80458 392.481821 
L 409.457348 382.985393 
L 411.110116 394.50308 
L 412.762884 354.048652 
L 414.415653 378.95454 
L 416.068421 327.061031 
L 417.721189 397.905529 
L 419.373958 377.592003 
L 421.026726 381.508112 
L 422.679494 394.759568 
L 424.332262 356.055094 
L 425.985031 377.668212 
L 427.637799 373.668213 
L 429.290567 379.818087 
L 430.943336 398.318493 
L 432.596104 402.689468 
L 434.248872 402.548488 
L 435.90164 360.127265 
L 437.554409 395.771674 
L 439.207177 398.272309 
L 440.859945 394.200143 
L 442.512714 394.390782 
L 444.165482 361.707434 
L 445.81825 326.676147 
L 447.471018 359.868758 
L 450.776555 397.827178 
L 452.429323 375.12083 
L 454.082092 382.0691 
L 455.73486 393.85978 
L 457.387628 415.287526 
L 459.040396 371.222399 
L 460.693165 287.443751 
L 462.345933 368.390736 
L 463.998701 403.884396 
L 465.65147 359.363007 
L 467.304238 366.749496 
L 468.957006 413.69968 
L 470.609774 354.018123 
L 472.262543 376.450699 
L 473.915311 392.08781 
L 475.568079 400.752849 
L 477.220848 373.721287 
L 478.873616 338.90091 
L 480.526384 365.641804 
L 482.179152 362.848232 
L 483.831921 379.632617 
L 485.484689 370.828874 
L 487.137457 377.8875 
L 488.790226 381.325897 
L 490.442994 361.40158 
L 492.095762 364.070698 
L 493.74853 399.103164 
L 495.401299 393.384185 
L 497.054067 347.292242 
L 498.706835 359.624225 
L 500.359604 380.252412 
L 502.012372 354.258048 
L 503.66514 388.976744 
L 505.317908 386.290702 
L 506.970677 393.593285 
L 508.623445 355.763257 
L 510.276213 384.184914 
L 511.928982 362.692969 
L 513.58175 360.716572 
L 515.234518 371.644327 
L 516.887286 376.182843 
L 518.540055 383.666079 
L 520.192823 352.939699 
L 521.845591 379.550729 
L 523.49836 379.682214 
L 525.151128 394.692879 
L 526.803896 369.617616 
L 528.456664 372.680328 
L 530.109433 363.413858 
L 531.762201 384.578862 
L 533.414969 364.074728 
L 535.067738 389.354402 
L 536.720506 364.098592 
L 538.373274 373.299747 
L 540.026042 357.641492 
L 541.678811 370.133307 
L 543.331579 395.078633 
L 544.984347 373.445667 
L 546.637116 395.329392 
L 548.289884 368.02252 
L 549.942652 395.481757 
L 551.59542 377.801274 
L 553.248189 315.888319 
L 554.900957 389.607039 
L 558.206494 374.404112 
L 559.859262 381.998744 
L 561.51203 370.281389 
L 563.164798 388.346678 
L 564.817567 393.287508 
L 566.470335 374.300738 
L 568.123103 360.503267 
L 569.775871 392.67619 
L 571.42864 385.800816 
L 573.081408 373.281422 
L 574.734176 396.230388 
L 576.386945 384.86549 
L 578.039713 385.504594 
L 579.692481 357.029818 
L 581.345249 362.680324 
L 582.998018 327.402328 
L 584.650786 360.035196 
L 586.303554 365.40097 
L 587.956323 398.794169 
L 589.609091 395.692148 
L 591.261859 401.931405 
L 592.914627 370.968295 
L 594.567396 384.043677 
L 596.220164 379.279674 
L 597.872932 387.251236 
L 599.525701 377.528903 
L 601.178469 366.814225 
L 602.831237 402.331638 
L 604.484005 380.021261 
L 606.136774 372.110341 
L 607.789542 379.604518 
L 609.44231 395.726575 
L 611.095079 391.216558 
L 612.747847 363.534181 
L 614.400615 392.368003 
L 616.053383 413.842663 
L 617.706152 398.715693 
L 619.35892 377.882598 
L 621.011688 368.829274 
L 622.664457 378.635821 
L 624.317225 375.584943 
L 625.969993 339.154378 
L 627.622761 372.491285 
L 629.27553 372.862581 
L 630.928298 389.555016 
L 632.581066 365.717446 
L 634.233835 362.17641 
L 635.886603 367.805342 
L 637.539371 380.201303 
L 639.192139 401.957938 
L 640.844908 396.2154 
L 642.497676 359.77766 
L 644.150444 370.917027 
L 645.803213 358.597932 
L 647.455981 381.761915 
L 649.108749 354.622838 
L 650.761517 374.224169 
L 652.414286 410.253766 
L 654.067054 381.941798 
L 655.719822 403.56845 
L 657.372591 393.442386 
L 659.025359 367.050827 
L 660.678127 381.440574 
L 662.330895 391.758721 
L 663.983664 385.02953 
L 665.636432 357.935313 
L 667.2892 356.603851 
L 668.941969 340.871629 
L 670.594737 376.219131 
L 672.247505 379.449529 
L 673.900273 358.309724 
L 675.553042 410.214589 
L 677.20581 391.28687 
L 678.858578 359.383582 
L 680.511347 335.599324 
L 682.164115 358.07206 
L 683.816883 366.944639 
L 685.469651 393.397019 
L 687.12242 387.646684 
L 688.775188 379.502645 
L 690.427956 375.457521 
L 692.080725 400.168986 
L 693.733493 387.557859 
L 695.386261 367.700222 
L 697.039029 344.832423 
L 698.691798 357.797921 
L 700.344566 360.993871 
L 701.997334 384.407907 
L 703.650103 374.563466 
L 705.302871 379.76458 
L 706.955639 392.792894 
L 708.608407 387.101865 
L 710.261176 363.50366 
L 711.913944 318.355109 
L 713.566712 370.143228 
L 715.219481 366.870129 
L 716.872249 368.002328 
L 718.525017 380.698155 
L 720.177785 360.910466 
L 721.830554 384.336567 
L 723.483322 409.451151 
L 725.13609 398.404249 
L 726.788859 392.623034 
L 728.441627 360.325041 
L 730.094395 369.87746 
L 731.747163 367.886447 
L 733.399932 410.458138 
L 736.705468 317.477076 
L 738.358237 387.784523 
L 740.011005 358.938998 
L 741.663773 389.305165 
L 743.316541 375.662318 
L 744.96931 381.021766 
L 746.622078 335.351382 
L 748.274846 349.666869 
L 749.927614 408.346155 
L 751.580383 387.125574 
L 753.233151 389.357312 
L 754.885919 389.537672 
L 756.538688 386.764962 
L 758.191456 373.900908 
L 759.844224 376.612799 
L 761.496992 383.472434 
L 763.149761 340.779995 
L 764.802529 382.614101 
L 766.455297 353.363455 
L 768.108066 394.084218 
L 769.760834 367.889883 
L 771.413602 368.069416 
L 773.06637 370.619314 
L 774.719139 395.787641 
L 776.371907 382.71439 
L 778.024675 379.399128 
L 779.677444 373.129501 
L 781.330212 379.548274 
L 784.635748 378.932821 
L 786.288517 411.635708 
L 787.941285 385.055435 
L 789.594053 397.694927 
L 791.246822 334.308494 
L 792.89959 380.585461 
L 794.552358 383.405771 
L 796.205126 298.493439 
L 797.857895 393.030708 
L 799.510663 382.122477 
L 801.163431 378.292931 
L 802.8162 417.417359 
L 804.468968 318.769887 
L 806.121736 373.090303 
L 807.774504 389.372355 
L 809.427273 375.576761 
L 809.427273 375.576761 
" style="fill:none;stroke:#ff0000;stroke-linecap:round;stroke-width:1.75;"/>
   </g>
   <g id="line2d_34">
    <path clip-path="url(#pe22b30f863)" d="M 149.972727 404.99827 
L 154.931032 404.99827 
L 156.5838 374.221998 
L 158.236569 322.928211 
L 159.889337 343.445726 
L 161.542105 404.99827 
L 163.194874 404.99827 
L 164.847642 302.410697 
L 166.50041 251.11691 
L 168.153178 404.99827 
L 169.805947 312.669454 
L 171.458715 363.963241 
L 173.111483 271.634425 
L 174.764252 343.445726 
L 176.41702 404.99827 
L 178.069788 353.704483 
L 179.722556 374.221998 
L 181.375325 404.99827 
L 183.028093 374.221998 
L 184.680861 374.221998 
L 186.33363 384.480755 
L 187.986398 404.99827 
L 189.639166 374.221998 
L 191.291934 394.739512 
L 196.250239 394.739512 
L 197.903008 404.99827 
L 199.555776 343.445726 
L 201.208544 394.739512 
L 202.861312 333.186969 
L 204.514081 404.99827 
L 206.166849 404.99827 
L 207.819617 363.963241 
L 209.472386 404.99827 
L 211.125154 333.186969 
L 212.777922 394.739512 
L 214.43069 343.445726 
L 216.083459 384.480755 
L 217.736227 404.99827 
L 221.041763 404.99827 
L 222.694532 374.221998 
L 224.3473 312.669454 
L 226.000068 384.480755 
L 227.652837 404.99827 
L 230.958373 404.99827 
L 232.611141 322.928211 
L 234.26391 343.445726 
L 235.916678 404.99827 
L 239.222215 404.99827 
L 240.874983 374.221998 
L 242.527751 404.99827 
L 250.791593 404.99827 
L 252.444361 374.221998 
L 254.097129 404.99827 
L 255.749897 404.99827 
L 257.402666 363.963241 
L 259.055434 404.99827 
L 260.708202 374.221998 
L 262.360971 404.99827 
L 268.972044 404.99827 
L 270.624812 384.480755 
L 272.27758 404.99827 
L 273.930349 404.99827 
L 275.583117 343.445726 
L 277.235885 404.99827 
L 278.888653 404.99827 
L 280.541422 374.221998 
L 282.19419 333.186969 
L 283.846958 404.99827 
L 285.499727 404.99827 
L 287.152495 374.221998 
L 288.805263 271.634425 
L 290.458031 374.221998 
L 292.1108 404.99827 
L 293.763568 343.445726 
L 295.416336 333.186969 
L 297.069105 404.99827 
L 298.721873 353.704483 
L 302.027409 374.221998 
L 303.680178 404.99827 
L 305.332946 384.480755 
L 306.985714 343.445726 
L 308.638483 363.963241 
L 310.291251 343.445726 
L 311.944019 404.99827 
L 313.596787 302.410697 
L 315.249556 404.99827 
L 323.513397 404.99827 
L 325.166165 384.480755 
L 326.818934 394.739512 
L 328.471702 353.704483 
L 330.12447 404.99827 
L 331.777239 404.99827 
L 333.430007 302.410697 
L 335.082775 333.186969 
L 336.735543 404.99827 
L 340.04108 404.99827 
L 341.693848 394.739512 
L 343.346617 404.99827 
L 344.999385 384.480755 
L 348.304921 404.99827 
L 349.95769 394.739512 
L 351.610458 404.99827 
L 353.263226 404.99827 
L 354.915995 322.928211 
L 356.568763 302.410697 
L 358.221531 404.99827 
L 359.874299 353.704483 
L 361.527068 374.221998 
L 363.179836 374.221998 
L 364.832604 404.99827 
L 366.485373 353.704483 
L 368.138141 343.445726 
L 369.790909 292.15194 
L 371.443677 343.445726 
L 373.096446 343.445726 
L 374.749214 333.186969 
L 376.401982 353.704483 
L 378.054751 333.186969 
L 379.707519 404.99827 
L 381.360287 404.99827 
L 383.013055 374.221998 
L 384.665824 394.739512 
L 386.318592 343.445726 
L 387.97136 322.928211 
L 389.624129 404.99827 
L 391.276897 374.221998 
L 392.929665 404.99827 
L 394.582433 302.410697 
L 396.235202 404.99827 
L 401.193506 404.99827 
L 402.846275 374.221998 
L 404.499043 404.99827 
L 406.151811 404.99827 
L 411.110116 374.221998 
L 412.762884 374.221998 
L 414.415653 404.99827 
L 415.778352 -1 
M 416.364661 -1 
L 417.721189 394.739512 
L 419.373958 343.445726 
L 421.026726 394.739512 
L 422.679494 404.99827 
L 424.332262 404.99827 
L 425.985031 353.704483 
L 427.637799 404.99827 
L 434.248872 404.99827 
L 435.90164 322.928211 
L 437.554409 404.99827 
L 439.207177 322.928211 
L 440.859945 363.963241 
L 442.512714 343.445726 
L 444.165482 363.963241 
L 445.81825 404.99827 
L 449.123787 404.99827 
L 450.776555 363.963241 
L 452.429323 394.739512 
L 454.082092 404.99827 
L 457.387628 404.99827 
L 459.040396 302.410697 
L 460.693165 230.599396 
L 462.345933 322.928211 
L 463.998701 404.99827 
L 465.65147 322.928211 
L 467.304238 374.221998 
L 468.957006 404.99827 
L 470.609774 374.221998 
L 472.262543 404.99827 
L 473.915311 374.221998 
L 475.568079 374.221998 
L 477.220848 384.480755 
L 478.873616 343.445726 
L 480.526384 384.480755 
L 482.179152 271.634425 
L 483.831921 404.99827 
L 485.484689 384.480755 
L 487.137457 404.99827 
L 488.790226 312.669454 
L 490.442994 394.739512 
L 492.095762 322.928211 
L 493.74853 404.99827 
L 495.401299 404.99827 
L 497.054067 343.445726 
L 500.359604 384.480755 
L 502.012372 363.963241 
L 503.66514 394.739512 
L 505.317908 343.445726 
L 506.970677 404.99827 
L 508.623445 322.928211 
L 510.276213 394.739512 
L 511.928982 343.445726 
L 513.58175 322.928211 
L 515.234518 394.739512 
L 516.887286 292.15194 
L 518.540055 343.445726 
L 520.192823 404.99827 
L 521.845591 302.410697 
L 523.49836 404.99827 
L 525.151128 394.739512 
L 526.803896 404.99827 
L 528.456664 363.963241 
L 530.109433 363.963241 
L 531.762201 404.99827 
L 533.414969 374.221998 
L 535.067738 394.739512 
L 536.720506 322.928211 
L 538.373274 384.480755 
L 540.026042 374.221998 
L 541.678811 404.99827 
L 543.331579 404.99827 
L 546.637116 363.963241 
L 548.289884 404.99827 
L 549.942652 292.15194 
L 551.59542 404.99827 
L 553.248189 322.928211 
L 554.900957 394.739512 
L 556.553725 404.99827 
L 558.206494 363.963241 
L 559.859262 404.99827 
L 563.164798 404.99827 
L 564.817567 343.445726 
L 566.470335 404.99827 
L 568.123103 374.221998 
L 569.775871 404.99827 
L 573.081408 404.99827 
L 574.734176 322.928211 
L 576.386945 404.99827 
L 578.039713 394.739512 
L 579.692481 343.445726 
L 581.345249 343.445726 
L 582.998018 333.186969 
L 584.650786 302.410697 
L 586.303554 374.221998 
L 587.956323 394.739512 
L 589.609091 404.99827 
L 591.261859 404.99827 
L 592.914627 363.963241 
L 594.567396 404.99827 
L 597.872932 404.99827 
L 599.525701 343.445726 
L 601.178469 384.480755 
L 602.831237 322.928211 
L 604.484005 394.739512 
L 606.136774 302.410697 
L 607.789542 343.445726 
L 609.44231 374.221998 
L 611.095079 374.221998 
L 612.747847 404.99827 
L 614.400615 343.445726 
L 616.053383 404.99827 
L 617.706152 404.99827 
L 619.35892 353.704483 
L 621.011688 394.739512 
L 622.664457 404.99827 
L 624.317225 404.99827 
L 627.622761 322.928211 
L 629.27553 404.99827 
L 630.928298 333.186969 
L 632.581066 404.99827 
L 634.233835 251.11691 
L 635.886603 404.99827 
L 642.497676 363.963241 
L 644.150444 281.893182 
L 645.803213 312.669454 
L 647.455981 404.99827 
L 649.108749 343.445726 
L 650.761517 404.99827 
L 655.719822 404.99827 
L 657.372591 353.704483 
L 659.025359 404.99827 
L 660.678127 404.99827 
L 662.330895 353.704483 
L 663.983664 404.99827 
L 665.636432 404.99827 
L 667.2892 333.186969 
L 668.941969 322.928211 
L 670.594737 374.221998 
L 672.247505 404.99827 
L 673.900273 322.928211 
L 675.553042 404.99827 
L 677.20581 394.739512 
L 678.858578 353.704483 
L 680.511347 353.704483 
L 682.164115 292.15194 
L 683.816883 384.480755 
L 685.469651 404.99827 
L 687.12242 384.480755 
L 690.427956 404.99827 
L 692.080725 343.445726 
L 693.733493 404.99827 
L 695.386261 394.739512 
L 697.039029 404.99827 
L 698.691798 363.963241 
L 700.344566 404.99827 
L 701.997334 343.445726 
L 703.650103 374.221998 
L 705.302871 384.480755 
L 708.608407 322.928211 
L 710.261176 374.221998 
L 711.913944 404.99827 
L 713.566712 404.99827 
L 715.219481 374.221998 
L 716.872249 322.928211 
L 718.525017 404.99827 
L 720.177785 404.99827 
L 721.830554 302.410697 
L 723.483322 404.99827 
L 725.13609 374.221998 
L 726.788859 281.893182 
L 728.441627 312.669454 
L 730.094395 384.480755 
L 731.747163 343.445726 
L 733.399932 404.99827 
L 735.0527 384.480755 
L 736.705468 179.305609 
L 738.358237 374.221998 
L 740.011005 343.445726 
L 741.663773 404.99827 
L 743.316541 384.480755 
L 744.96931 404.99827 
L 746.622078 271.634425 
L 748.274846 343.445726 
L 751.580383 404.99827 
L 753.233151 394.739512 
L 754.885919 404.99827 
L 756.538688 404.99827 
L 758.191456 343.445726 
L 759.844224 384.480755 
L 763.149761 404.99827 
L 764.802529 394.739512 
L 766.455297 374.221998 
L 768.108066 404.99827 
L 769.760834 384.480755 
L 771.413602 384.480755 
L 773.06637 404.99827 
L 774.719139 394.739512 
L 776.371907 343.445726 
L 778.024675 394.739512 
L 779.677444 374.221998 
L 781.330212 404.99827 
L 782.98298 281.893182 
L 784.635748 404.99827 
L 789.594053 404.99827 
L 791.246822 333.186969 
L 792.89959 353.704483 
L 794.552358 404.99827 
L 796.205126 281.893182 
L 797.857895 404.99827 
L 799.510663 363.963241 
L 801.163431 404.99827 
L 802.8162 404.99827 
L 804.468968 312.669454 
L 806.121736 394.739512 
L 807.774504 404.99827 
L 809.427273 353.704483 
L 809.427273 353.704483 
" style="fill:none;stroke:#0000ff;stroke-linecap:round;stroke-width:1.75;"/>
   </g>
   <g id="patch_3">
    <path d="M 117 441 
L 117 60.48 
" style="fill:none;"/>
   </g>
   <g id="patch_4">
    <path d="M 842.4 441 
L 842.4 60.48 
" style="fill:none;"/>
   </g>
   <g id="patch_5">
    <path d="M 117 441 
L 842.4 441 
" style="fill:none;"/>
   </g>
   <g id="patch_6">
    <path d="M 117 60.48 
L 842.4 60.48 
" style="fill:none;"/>
   </g>
   <g id="text_17">
    <!-- y_pred, y_test -->
    <defs>
     <path d="M 6.203125 -19.96875 
L 5.21875 -11.71875 
Q 8.109375 -12.5 10.25 -12.5 
Q 13.1875 -12.5 14.9375 -11.515625 
Q 16.703125 -10.546875 17.828125 -8.796875 
Q 18.65625 -7.46875 20.515625 -2.25 
Q 20.75 -1.515625 21.296875 -0.09375 
L 1.609375 51.859375 
L 11.078125 51.859375 
L 21.875 21.828125 
Q 23.96875 16.109375 25.640625 9.8125 
Q 27.15625 15.875 29.25 21.625 
L 40.328125 51.859375 
L 49.125 51.859375 
L 29.390625 -0.875 
Q 26.21875 -9.421875 24.46875 -12.640625 
Q 22.125 -17 19.09375 -19.015625 
Q 16.0625 -21.046875 11.859375 -21.046875 
Q 9.328125 -21.046875 6.203125 -19.96875 
z
" id="ArialMT-79"/>
     <path d="M -1.515625 -19.875 
L -1.515625 -13.53125 
L 56.734375 -13.53125 
L 56.734375 -19.875 
z
" id="ArialMT-5f"/>
     <path d="M 6.59375 -19.875 
L 6.59375 51.859375 
L 14.59375 51.859375 
L 14.59375 45.125 
Q 17.4375 49.078125 21 51.046875 
Q 24.5625 53.03125 29.640625 53.03125 
Q 36.28125 53.03125 41.359375 49.609375 
Q 46.4375 46.1875 49.015625 39.953125 
Q 51.609375 33.734375 51.609375 26.3125 
Q 51.609375 18.359375 48.75 11.984375 
Q 45.90625 5.609375 40.453125 2.21875 
Q 35.015625 -1.171875 29 -1.171875 
Q 24.609375 -1.171875 21.109375 0.6875 
Q 17.625 2.546875 15.375 5.375 
L 15.375 -19.875 
z
M 14.546875 25.640625 
Q 14.546875 15.625 18.59375 10.84375 
Q 22.65625 6.0625 28.421875 6.0625 
Q 34.28125 6.0625 38.453125 11.015625 
Q 42.625 15.96875 42.625 26.375 
Q 42.625 36.28125 38.546875 41.203125 
Q 34.46875 46.140625 28.8125 46.140625 
Q 23.1875 46.140625 18.859375 40.890625 
Q 14.546875 35.640625 14.546875 25.640625 
z
" id="ArialMT-70"/>
     <path d="M 6.5 0 
L 6.5 51.859375 
L 14.40625 51.859375 
L 14.40625 44 
Q 17.4375 49.515625 20 51.265625 
Q 22.5625 53.03125 25.640625 53.03125 
Q 30.078125 53.03125 34.671875 50.203125 
L 31.640625 42.046875 
Q 28.421875 43.953125 25.203125 43.953125 
Q 22.3125 43.953125 20.015625 42.21875 
Q 17.71875 40.484375 16.75 37.40625 
Q 15.28125 32.71875 15.28125 27.15625 
L 15.28125 0 
z
" id="ArialMT-72"/>
     <path d="M 42.09375 16.703125 
L 51.171875 15.578125 
Q 49.03125 7.625 43.21875 3.21875 
Q 37.40625 -1.171875 28.375 -1.171875 
Q 17 -1.171875 10.328125 5.828125 
Q 3.65625 12.84375 3.65625 25.484375 
Q 3.65625 38.578125 10.390625 45.796875 
Q 17.140625 53.03125 27.875 53.03125 
Q 38.28125 53.03125 44.875 45.953125 
Q 51.46875 38.875 51.46875 26.03125 
Q 51.46875 25.25 51.421875 23.6875 
L 12.75 23.6875 
Q 13.234375 15.140625 17.578125 10.59375 
Q 21.921875 6.0625 28.421875 6.0625 
Q 33.25 6.0625 36.671875 8.59375 
Q 40.09375 11.140625 42.09375 16.703125 
z
M 13.234375 30.90625 
L 42.1875 30.90625 
Q 41.609375 37.453125 38.875 40.71875 
Q 34.671875 45.796875 27.984375 45.796875 
Q 21.921875 45.796875 17.796875 41.75 
Q 13.671875 37.703125 13.234375 30.90625 
z
" id="ArialMT-65"/>
     <path d="M 40.234375 0 
L 40.234375 6.546875 
Q 35.296875 -1.171875 25.734375 -1.171875 
Q 19.53125 -1.171875 14.328125 2.25 
Q 9.125 5.671875 6.265625 11.796875 
Q 3.421875 17.921875 3.421875 25.875 
Q 3.421875 33.640625 6 39.96875 
Q 8.59375 46.296875 13.765625 49.65625 
Q 18.953125 53.03125 25.34375 53.03125 
Q 30.03125 53.03125 33.6875 51.046875 
Q 37.359375 49.078125 39.65625 45.90625 
L 39.65625 71.578125 
L 48.390625 71.578125 
L 48.390625 0 
z
M 12.453125 25.875 
Q 12.453125 15.921875 16.640625 10.984375 
Q 20.84375 6.0625 26.5625 6.0625 
Q 32.328125 6.0625 36.34375 10.765625 
Q 40.375 15.484375 40.375 25.140625 
Q 40.375 35.796875 36.265625 40.765625 
Q 32.171875 45.75 26.171875 45.75 
Q 20.3125 45.75 16.375 40.96875 
Q 12.453125 36.1875 12.453125 25.875 
z
" id="ArialMT-64"/>
     <path d="M 8.890625 0 
L 8.890625 10.015625 
L 18.890625 10.015625 
L 18.890625 0 
Q 18.890625 -5.515625 16.9375 -8.90625 
Q 14.984375 -12.3125 10.75 -14.15625 
L 8.296875 -10.40625 
Q 11.078125 -9.1875 12.390625 -6.8125 
Q 13.71875 -4.4375 13.875 0 
z
" id="ArialMT-2c"/>
     <path id="ArialMT-20"/>
     <path d="M 25.78125 7.859375 
L 27.046875 0.09375 
Q 23.34375 -0.6875 20.40625 -0.6875 
Q 15.625 -0.6875 12.984375 0.828125 
Q 10.359375 2.34375 9.28125 4.8125 
Q 8.203125 7.28125 8.203125 15.1875 
L 8.203125 45.015625 
L 1.765625 45.015625 
L 1.765625 51.859375 
L 8.203125 51.859375 
L 8.203125 64.703125 
L 16.9375 69.96875 
L 16.9375 51.859375 
L 25.78125 51.859375 
L 25.78125 45.015625 
L 16.9375 45.015625 
L 16.9375 14.703125 
Q 16.9375 10.9375 17.40625 9.859375 
Q 17.875 8.796875 18.921875 8.15625 
Q 19.96875 7.515625 21.921875 7.515625 
Q 23.390625 7.515625 25.78125 7.859375 
z
" id="ArialMT-74"/>
     <path d="M 3.078125 15.484375 
L 11.765625 16.84375 
Q 12.5 11.625 15.84375 8.84375 
Q 19.1875 6.0625 25.203125 6.0625 
Q 31.25 6.0625 34.171875 8.515625 
Q 37.109375 10.984375 37.109375 14.3125 
Q 37.109375 17.28125 34.515625 19 
Q 32.71875 20.171875 25.53125 21.96875 
Q 15.875 24.421875 12.140625 26.203125 
Q 8.40625 27.984375 6.46875 31.125 
Q 4.546875 34.28125 4.546875 38.09375 
Q 4.546875 41.546875 6.125 44.5 
Q 7.71875 47.46875 10.453125 49.421875 
Q 12.5 50.921875 16.03125 51.96875 
Q 19.578125 53.03125 23.640625 53.03125 
Q 29.734375 53.03125 34.34375 51.265625 
Q 38.96875 49.515625 41.15625 46.5 
Q 43.359375 43.5 44.1875 38.484375 
L 35.59375 37.3125 
Q 35.015625 41.3125 32.203125 43.546875 
Q 29.390625 45.796875 24.265625 45.796875 
Q 18.21875 45.796875 15.625 43.796875 
Q 13.03125 41.796875 13.03125 39.109375 
Q 13.03125 37.40625 14.109375 36.03125 
Q 15.1875 34.625 17.484375 33.6875 
Q 18.796875 33.203125 25.25 31.453125 
Q 34.578125 28.953125 38.25 27.359375 
Q 41.9375 25.78125 44.03125 22.75 
Q 46.140625 19.734375 46.140625 15.234375 
Q 46.140625 10.84375 43.578125 6.953125 
Q 41.015625 3.078125 36.171875 0.953125 
Q 31.34375 -1.171875 25.25 -1.171875 
Q 15.140625 -1.171875 9.84375 3.03125 
Q 4.546875 7.234375 3.078125 15.484375 
z
" id="ArialMT-73"/>
    </defs>
    <g style="fill:#262626;" transform="translate(442.015312 54.48)scale(0.12 -0.12)">
     <use xlink:href="#ArialMT-79"/>
     <use x="50" xlink:href="#ArialMT-5f"/>
     <use x="105.615234" xlink:href="#ArialMT-70"/>
     <use x="161.230469" xlink:href="#ArialMT-72"/>
     <use x="194.53125" xlink:href="#ArialMT-65"/>
     <use x="250.146484" xlink:href="#ArialMT-64"/>
     <use x="305.761719" xlink:href="#ArialMT-2c"/>
     <use x="333.544922" xlink:href="#ArialMT-20"/>
     <use x="361.328125" xlink:href="#ArialMT-79"/>
     <use x="411.328125" xlink:href="#ArialMT-5f"/>
     <use x="466.943359" xlink:href="#ArialMT-74"/>
     <use x="494.726562" xlink:href="#ArialMT-65"/>
     <use x="550.341797" xlink:href="#ArialMT-73"/>
     <use x="600.341797" xlink:href="#ArialMT-74"/>
    </g>
   </g>
  </g>
 </g>
 <defs>
  <clipPath id="pe22b30f863">
   <rect height="380.52" width="725.4" x="117" y="60.48"/>
  </clipPath>
 </defs>
</svg>
