<?xml version="1.0" encoding="utf-8" standalone="no"?>
<!DOCTYPE svg PUBLIC "-//W3C//DTD SVG 1.1//EN"
  "http://www.w3.org/Graphics/SVG/1.1/DTD/svg11.dtd">
<!-- Created with matplotlib (http://matplotlib.org/) -->
<svg height="504pt" version="1.1" viewBox="0 0 936 504" width="936pt" xmlns="http://www.w3.org/2000/svg" xmlns:xlink="http://www.w3.org/1999/xlink">
 <defs>
  <style type="text/css">
*{stroke-linecap:butt;stroke-linejoin:round;}
  </style>
 </defs>
 <g id="figure_1">
  <g id="patch_1">
   <path d="M 0 504 
L 936 504 
L 936 0 
L 0 0 
z
" style="fill:#ffffff;"/>
  </g>
  <g id="axes_1">
   <g id="patch_2">
    <path d="M 117 441 
L 842.4 441 
L 842.4 60.48 
L 117 60.48 
z
" style="fill:#eaeaf2;"/>
   </g>
   <g id="matplotlib.axis_1">
    <g id="xtick_1">
     <g id="line2d_1">
      <path clip-path="url(#p5809d49cad)" d="M 149.972727 441 
L 149.972727 60.48 
" style="fill:none;stroke:#ffffff;stroke-linecap:round;"/>
     </g>
     <g id="line2d_2"/>
     <g id="text_1">
      <!-- 0 -->
      <defs>
       <path d="M 4.15625 35.296875 
Q 4.15625 48 6.765625 55.734375 
Q 9.375 63.484375 14.515625 67.671875 
Q 19.671875 71.875 27.484375 71.875 
Q 33.25 71.875 37.59375 69.546875 
Q 41.9375 67.234375 44.765625 62.859375 
Q 47.609375 58.5 49.21875 52.21875 
Q 50.828125 45.953125 50.828125 35.296875 
Q 50.828125 22.703125 48.234375 14.96875 
Q 45.65625 7.234375 40.5 3 
Q 35.359375 -1.21875 27.484375 -1.21875 
Q 17.140625 -1.21875 11.234375 6.203125 
Q 4.15625 15.140625 4.15625 35.296875 
z
M 13.1875 35.296875 
Q 13.1875 17.671875 17.3125 11.828125 
Q 21.4375 6 27.484375 6 
Q 33.546875 6 37.671875 11.859375 
Q 41.796875 17.71875 41.796875 35.296875 
Q 41.796875 52.984375 37.671875 58.78125 
Q 33.546875 64.59375 27.390625 64.59375 
Q 21.34375 64.59375 17.71875 59.46875 
Q 13.1875 52.9375 13.1875 35.296875 
z
" id="ArialMT-30"/>
      </defs>
      <g style="fill:#262626;" transform="translate(147.192259 455.157812)scale(0.1 -0.1)">
       <use xlink:href="#ArialMT-30"/>
      </g>
     </g>
    </g>
    <g id="xtick_2">
     <g id="line2d_3">
      <path clip-path="url(#p5809d49cad)" d="M 232.611141 441 
L 232.611141 60.48 
" style="fill:none;stroke:#ffffff;stroke-linecap:round;"/>
     </g>
     <g id="line2d_4"/>
     <g id="text_2">
      <!-- 50 -->
      <defs>
       <path d="M 4.15625 18.75 
L 13.375 19.53125 
Q 14.40625 12.796875 18.140625 9.390625 
Q 21.875 6 27.15625 6 
Q 33.5 6 37.890625 10.78125 
Q 42.28125 15.578125 42.28125 23.484375 
Q 42.28125 31 38.0625 35.34375 
Q 33.84375 39.703125 27 39.703125 
Q 22.75 39.703125 19.328125 37.765625 
Q 15.921875 35.84375 13.96875 32.765625 
L 5.71875 33.84375 
L 12.640625 70.609375 
L 48.25 70.609375 
L 48.25 62.203125 
L 19.671875 62.203125 
L 15.828125 42.96875 
Q 22.265625 47.46875 29.34375 47.46875 
Q 38.71875 47.46875 45.15625 40.96875 
Q 51.609375 34.46875 51.609375 24.265625 
Q 51.609375 14.546875 45.953125 7.46875 
Q 39.0625 -1.21875 27.15625 -1.21875 
Q 17.390625 -1.21875 11.203125 4.25 
Q 5.03125 9.71875 4.15625 18.75 
z
" id="ArialMT-35"/>
      </defs>
      <g style="fill:#262626;" transform="translate(227.050204 455.157812)scale(0.1 -0.1)">
       <use xlink:href="#ArialMT-35"/>
       <use x="55.615234" xlink:href="#ArialMT-30"/>
      </g>
     </g>
    </g>
    <g id="xtick_3">
     <g id="line2d_5">
      <path clip-path="url(#p5809d49cad)" d="M 315.249556 441 
L 315.249556 60.48 
" style="fill:none;stroke:#ffffff;stroke-linecap:round;"/>
     </g>
     <g id="line2d_6"/>
     <g id="text_3">
      <!-- 100 -->
      <defs>
       <path d="M 37.25 0 
L 28.46875 0 
L 28.46875 56 
Q 25.296875 52.984375 20.140625 49.953125 
Q 14.984375 46.921875 10.890625 45.40625 
L 10.890625 53.90625 
Q 18.265625 57.375 23.78125 62.296875 
Q 29.296875 67.234375 31.59375 71.875 
L 37.25 71.875 
z
" id="ArialMT-31"/>
      </defs>
      <g style="fill:#262626;" transform="translate(306.908149 455.157812)scale(0.1 -0.1)">
       <use xlink:href="#ArialMT-31"/>
       <use x="55.615234" xlink:href="#ArialMT-30"/>
       <use x="111.230469" xlink:href="#ArialMT-30"/>
      </g>
     </g>
    </g>
    <g id="xtick_4">
     <g id="line2d_7">
      <path clip-path="url(#p5809d49cad)" d="M 397.88797 441 
L 397.88797 60.48 
" style="fill:none;stroke:#ffffff;stroke-linecap:round;"/>
     </g>
     <g id="line2d_8"/>
     <g id="text_4">
      <!-- 150 -->
      <g style="fill:#262626;" transform="translate(389.546564 455.157812)scale(0.1 -0.1)">
       <use xlink:href="#ArialMT-31"/>
       <use x="55.615234" xlink:href="#ArialMT-35"/>
       <use x="111.230469" xlink:href="#ArialMT-30"/>
      </g>
     </g>
    </g>
    <g id="xtick_5">
     <g id="line2d_9">
      <path clip-path="url(#p5809d49cad)" d="M 480.526384 441 
L 480.526384 60.48 
" style="fill:none;stroke:#ffffff;stroke-linecap:round;"/>
     </g>
     <g id="line2d_10"/>
     <g id="text_5">
      <!-- 200 -->
      <defs>
       <path d="M 50.34375 8.453125 
L 50.34375 0 
L 3.03125 0 
Q 2.9375 3.171875 4.046875 6.109375 
Q 5.859375 10.9375 9.828125 15.625 
Q 13.8125 20.3125 21.34375 26.46875 
Q 33.015625 36.03125 37.109375 41.625 
Q 41.21875 47.21875 41.21875 52.203125 
Q 41.21875 57.421875 37.46875 61 
Q 33.734375 64.59375 27.734375 64.59375 
Q 21.390625 64.59375 17.578125 60.78125 
Q 13.765625 56.984375 13.71875 50.25 
L 4.6875 51.171875 
Q 5.609375 61.28125 11.65625 66.578125 
Q 17.71875 71.875 27.9375 71.875 
Q 38.234375 71.875 44.234375 66.15625 
Q 50.25 60.453125 50.25 52 
Q 50.25 47.703125 48.484375 43.546875 
Q 46.734375 39.40625 42.65625 34.8125 
Q 38.578125 30.21875 29.109375 22.21875 
Q 21.1875 15.578125 18.9375 13.203125 
Q 16.703125 10.84375 15.234375 8.453125 
z
" id="ArialMT-32"/>
      </defs>
      <g style="fill:#262626;" transform="translate(472.184978 455.157812)scale(0.1 -0.1)">
       <use xlink:href="#ArialMT-32"/>
       <use x="55.615234" xlink:href="#ArialMT-30"/>
       <use x="111.230469" xlink:href="#ArialMT-30"/>
      </g>
     </g>
    </g>
    <g id="xtick_6">
     <g id="line2d_11">
      <path clip-path="url(#p5809d49cad)" d="M 563.164798 441 
L 563.164798 60.48 
" style="fill:none;stroke:#ffffff;stroke-linecap:round;"/>
     </g>
     <g id="line2d_12"/>
     <g id="text_6">
      <!-- 250 -->
      <g style="fill:#262626;" transform="translate(554.823392 455.157812)scale(0.1 -0.1)">
       <use xlink:href="#ArialMT-32"/>
       <use x="55.615234" xlink:href="#ArialMT-35"/>
       <use x="111.230469" xlink:href="#ArialMT-30"/>
      </g>
     </g>
    </g>
    <g id="xtick_7">
     <g id="line2d_13">
      <path clip-path="url(#p5809d49cad)" d="M 645.803213 441 
L 645.803213 60.48 
" style="fill:none;stroke:#ffffff;stroke-linecap:round;"/>
     </g>
     <g id="line2d_14"/>
     <g id="text_7">
      <!-- 300 -->
      <defs>
       <path d="M 4.203125 18.890625 
L 12.984375 20.0625 
Q 14.5 12.59375 18.140625 9.296875 
Q 21.78125 6 27 6 
Q 33.203125 6 37.46875 10.296875 
Q 41.75 14.59375 41.75 20.953125 
Q 41.75 27 37.796875 30.921875 
Q 33.84375 34.859375 27.734375 34.859375 
Q 25.25 34.859375 21.53125 33.890625 
L 22.515625 41.609375 
Q 23.390625 41.5 23.921875 41.5 
Q 29.546875 41.5 34.03125 44.421875 
Q 38.53125 47.359375 38.53125 53.46875 
Q 38.53125 58.296875 35.25 61.46875 
Q 31.984375 64.65625 26.8125 64.65625 
Q 21.6875 64.65625 18.265625 61.421875 
Q 14.84375 58.203125 13.875 51.765625 
L 5.078125 53.328125 
Q 6.6875 62.15625 12.390625 67.015625 
Q 18.109375 71.875 26.609375 71.875 
Q 32.46875 71.875 37.390625 69.359375 
Q 42.328125 66.84375 44.9375 62.5 
Q 47.5625 58.15625 47.5625 53.265625 
Q 47.5625 48.640625 45.0625 44.828125 
Q 42.578125 41.015625 37.703125 38.765625 
Q 44.046875 37.3125 47.5625 32.6875 
Q 51.078125 28.078125 51.078125 21.140625 
Q 51.078125 11.765625 44.234375 5.25 
Q 37.40625 -1.265625 26.953125 -1.265625 
Q 17.53125 -1.265625 11.296875 4.34375 
Q 5.078125 9.96875 4.203125 18.890625 
z
" id="ArialMT-33"/>
      </defs>
      <g style="fill:#262626;" transform="translate(637.461806 455.157812)scale(0.1 -0.1)">
       <use xlink:href="#ArialMT-33"/>
       <use x="55.615234" xlink:href="#ArialMT-30"/>
       <use x="111.230469" xlink:href="#ArialMT-30"/>
      </g>
     </g>
    </g>
    <g id="xtick_8">
     <g id="line2d_15">
      <path clip-path="url(#p5809d49cad)" d="M 728.441627 441 
L 728.441627 60.48 
" style="fill:none;stroke:#ffffff;stroke-linecap:round;"/>
     </g>
     <g id="line2d_16"/>
     <g id="text_8">
      <!-- 350 -->
      <g style="fill:#262626;" transform="translate(720.100221 455.157812)scale(0.1 -0.1)">
       <use xlink:href="#ArialMT-33"/>
       <use x="55.615234" xlink:href="#ArialMT-35"/>
       <use x="111.230469" xlink:href="#ArialMT-30"/>
      </g>
     </g>
    </g>
    <g id="xtick_9">
     <g id="line2d_17">
      <path clip-path="url(#p5809d49cad)" d="M 811.080041 441 
L 811.080041 60.48 
" style="fill:none;stroke:#ffffff;stroke-linecap:round;"/>
     </g>
     <g id="line2d_18"/>
     <g id="text_9">
      <!-- 400 -->
      <defs>
       <path d="M 32.328125 0 
L 32.328125 17.140625 
L 1.265625 17.140625 
L 1.265625 25.203125 
L 33.9375 71.578125 
L 41.109375 71.578125 
L 41.109375 25.203125 
L 50.78125 25.203125 
L 50.78125 17.140625 
L 41.109375 17.140625 
L 41.109375 0 
z
M 32.328125 25.203125 
L 32.328125 57.46875 
L 9.90625 25.203125 
z
" id="ArialMT-34"/>
      </defs>
      <g style="fill:#262626;" transform="translate(802.738635 455.157812)scale(0.1 -0.1)">
       <use xlink:href="#ArialMT-34"/>
       <use x="55.615234" xlink:href="#ArialMT-30"/>
       <use x="111.230469" xlink:href="#ArialMT-30"/>
      </g>
     </g>
    </g>
   </g>
   <g id="matplotlib.axis_2">
    <g id="ytick_1">
     <g id="line2d_19">
      <path clip-path="url(#p5809d49cad)" d="M 117 441 
L 842.4 441 
" style="fill:none;stroke:#ffffff;stroke-linecap:round;"/>
     </g>
     <g id="line2d_20"/>
     <g id="text_10">
      <!-- −1 -->
      <defs>
       <path d="M 52.828125 31.203125 
L 5.5625 31.203125 
L 5.5625 39.40625 
L 52.828125 39.40625 
z
" id="ArialMT-2212"/>
      </defs>
      <g style="fill:#262626;" transform="translate(98.598438 444.578906)scale(0.1 -0.1)">
       <use xlink:href="#ArialMT-2212"/>
       <use x="58.398438" xlink:href="#ArialMT-31"/>
      </g>
     </g>
    </g>
    <g id="ytick_2">
     <g id="line2d_21">
      <path clip-path="url(#p5809d49cad)" d="M 117 377.58 
L 842.4 377.58 
" style="fill:none;stroke:#ffffff;stroke-linecap:round;"/>
     </g>
     <g id="line2d_22"/>
     <g id="text_11">
      <!-- 0 -->
      <g style="fill:#262626;" transform="translate(104.439063 381.158906)scale(0.1 -0.1)">
       <use xlink:href="#ArialMT-30"/>
      </g>
     </g>
    </g>
    <g id="ytick_3">
     <g id="line2d_23">
      <path clip-path="url(#p5809d49cad)" d="M 117 314.16 
L 842.4 314.16 
" style="fill:none;stroke:#ffffff;stroke-linecap:round;"/>
     </g>
     <g id="line2d_24"/>
     <g id="text_12">
      <!-- 1 -->
      <g style="fill:#262626;" transform="translate(104.439063 317.738906)scale(0.1 -0.1)">
       <use xlink:href="#ArialMT-31"/>
      </g>
     </g>
    </g>
    <g id="ytick_4">
     <g id="line2d_25">
      <path clip-path="url(#p5809d49cad)" d="M 117 250.74 
L 842.4 250.74 
" style="fill:none;stroke:#ffffff;stroke-linecap:round;"/>
     </g>
     <g id="line2d_26"/>
     <g id="text_13">
      <!-- 2 -->
      <g style="fill:#262626;" transform="translate(104.439063 254.318906)scale(0.1 -0.1)">
       <use xlink:href="#ArialMT-32"/>
      </g>
     </g>
    </g>
    <g id="ytick_5">
     <g id="line2d_27">
      <path clip-path="url(#p5809d49cad)" d="M 117 187.32 
L 842.4 187.32 
" style="fill:none;stroke:#ffffff;stroke-linecap:round;"/>
     </g>
     <g id="line2d_28"/>
     <g id="text_14">
      <!-- 3 -->
      <g style="fill:#262626;" transform="translate(104.439063 190.898906)scale(0.1 -0.1)">
       <use xlink:href="#ArialMT-33"/>
      </g>
     </g>
    </g>
    <g id="ytick_6">
     <g id="line2d_29">
      <path clip-path="url(#p5809d49cad)" d="M 117 123.9 
L 842.4 123.9 
" style="fill:none;stroke:#ffffff;stroke-linecap:round;"/>
     </g>
     <g id="line2d_30"/>
     <g id="text_15">
      <!-- 4 -->
      <g style="fill:#262626;" transform="translate(104.439063 127.478906)scale(0.1 -0.1)">
       <use xlink:href="#ArialMT-34"/>
      </g>
     </g>
    </g>
    <g id="ytick_7">
     <g id="line2d_31">
      <path clip-path="url(#p5809d49cad)" d="M 117 60.48 
L 842.4 60.48 
" style="fill:none;stroke:#ffffff;stroke-linecap:round;"/>
     </g>
     <g id="line2d_32"/>
     <g id="text_16">
      <!-- 5 -->
      <g style="fill:#262626;" transform="translate(104.439063 64.058906)scale(0.1 -0.1)">
       <use xlink:href="#ArialMT-35"/>
      </g>
     </g>
    </g>
   </g>
   <g id="line2d_33">
    <path clip-path="url(#p5809d49cad)" d="M 149.972727 402.454524 
L 151.625496 397.523616 
L 153.278264 400.784018 
L 154.931032 396.446482 
L 156.5838 393.0538 
L 158.236569 324.930672 
L 159.889337 336.695499 
L 161.542105 409.73223 
L 163.194874 393.514073 
L 164.847642 374.478239 
L 166.50041 269.579455 
L 168.153178 401.498301 
L 169.805947 391.635593 
L 171.458715 365.548614 
L 173.111483 378.20703 
L 174.764252 355.915513 
L 176.41702 386.556685 
L 178.069788 369.793402 
L 179.722556 366.573972 
L 181.375325 396.384402 
L 183.028093 353.985369 
L 184.680861 352.082083 
L 186.33363 373.595613 
L 187.986398 411.510217 
L 189.639166 381.976747 
L 191.291934 374.078507 
L 192.944703 389.26745 
L 194.597471 384.591754 
L 196.250239 392.042805 
L 197.903008 403.735269 
L 199.555776 318.117372 
L 201.208544 387.556314 
L 202.861312 386.481927 
L 204.514081 375.166673 
L 206.166849 392.002749 
L 207.819617 376.890679 
L 209.472386 391.087602 
L 211.125154 358.513185 
L 212.777922 384.361297 
L 214.43069 380.01522 
L 216.083459 391.065175 
L 217.736227 399.938992 
L 219.388995 382.981443 
L 221.041763 373.600088 
L 222.694532 395.706778 
L 224.3473 354.637102 
L 226.000068 374.930127 
L 227.652837 408.832973 
L 229.305605 404.086379 
L 230.958373 400.491791 
L 232.611141 357.954785 
L 234.26391 377.096133 
L 235.916678 400.00986 
L 237.569446 399.255756 
L 239.222215 395.882544 
L 240.874983 360.452575 
L 242.527751 379.214268 
L 244.180519 373.021558 
L 245.833288 392.881222 
L 247.486056 388.73538 
L 249.138824 403.758441 
L 250.791593 397.152511 
L 252.444361 374.545133 
L 254.097129 403.958757 
L 255.749897 399.042834 
L 257.402666 400.452471 
L 259.055434 413.972132 
L 260.708202 391.481817 
L 262.360971 398.057137 
L 264.013739 383.30132 
L 265.666507 406.696068 
L 267.319275 400.589465 
L 268.972044 409.740323 
L 270.624812 399.088619 
L 272.27758 397.350413 
L 273.930349 400.250035 
L 275.583117 379.158341 
L 277.235885 375.492516 
L 278.888653 407.416482 
L 280.541422 375.4679 
L 282.19419 325.445662 
L 283.846958 386.522922 
L 285.499727 388.677767 
L 287.152495 394.697723 
L 288.805263 376.623007 
L 290.458031 361.022318 
L 292.1108 391.168603 
L 293.763568 375.49309 
L 295.416336 370.640815 
L 297.069105 394.939795 
L 298.721873 368.00074 
L 300.374641 384.557872 
L 302.027409 372.307675 
L 303.680178 373.597909 
L 305.332946 387.285064 
L 306.985714 369.348044 
L 308.638483 383.577025 
L 310.291251 369.61862 
L 311.944019 394.96835 
L 313.596787 369.298816 
L 315.249556 401.421505 
L 316.902324 394.245309 
L 318.555092 405.53375 
L 320.207861 394.60677 
L 321.860629 408.182222 
L 323.513397 375.21379 
L 325.166165 370.549501 
L 326.818934 369.635514 
L 328.471702 394.581776 
L 330.12447 386.021328 
L 331.777239 401.026677 
L 333.430007 375.399163 
L 335.082775 383.038462 
L 336.735543 403.142853 
L 338.388312 393.196877 
L 340.04108 411.828153 
L 341.693848 394.217038 
L 343.346617 404.839294 
L 344.999385 368.371685 
L 346.652153 372.817333 
L 348.304921 408.999254 
L 349.95769 393.647535 
L 351.610458 401.909129 
L 353.263226 390.800367 
L 354.915995 387.08525 
L 356.568763 385.446786 
L 358.221531 397.40825 
L 359.874299 398.659517 
L 361.527068 391.711967 
L 363.179836 355.227992 
L 364.832604 404.86172 
L 366.485373 358.293804 
L 368.138141 367.101711 
L 369.790909 307.411798 
L 371.443677 361.381581 
L 373.096446 380.925463 
L 374.749214 388.455006 
L 376.401982 367.454319 
L 378.054751 390.583696 
L 379.707519 403.364301 
L 381.360287 400.458806 
L 383.013055 387.638248 
L 384.665824 401.866336 
L 386.318592 360.448387 
L 387.97136 368.725093 
L 389.624129 384.668709 
L 391.276897 375.186849 
L 392.929665 390.771354 
L 394.582433 368.297363 
L 396.235202 405.434635 
L 397.88797 390.130262 
L 399.540738 399.367025 
L 401.193506 396.713411 
L 402.846275 409.665327 
L 404.499043 397.458334 
L 406.151811 367.644676 
L 407.80458 407.035308 
L 409.457348 388.272902 
L 411.110116 394.411308 
L 412.762884 358.751085 
L 414.415653 393.830517 
L 416.068421 251.788174 
L 417.721189 393.270685 
L 419.373958 384.881346 
L 422.679494 403.705863 
L 424.332262 404.49467 
L 425.985031 380.731302 
L 427.637799 405.242494 
L 429.290567 394.177073 
L 430.943336 396.894269 
L 432.596104 402.740218 
L 434.248872 412.057275 
L 435.90164 362.39315 
L 437.554409 397.962695 
L 439.207177 376.818507 
L 440.859945 395.519634 
L 442.512714 396.304725 
L 444.165482 357.313025 
L 445.81825 392.218787 
L 447.471018 388.132916 
L 449.123787 387.418112 
L 450.776555 397.215861 
L 452.429323 380.391158 
L 454.082092 390.261577 
L 455.73486 399.160416 
L 457.387628 396.79673 
L 459.040396 380.905768 
L 460.693165 305.150264 
L 462.345933 373.053339 
L 463.998701 404.221635 
L 465.65147 371.977993 
L 467.304238 368.259373 
L 468.957006 401.959556 
L 470.609774 372.417414 
L 472.262543 383.370861 
L 473.915311 388.643303 
L 475.568079 398.700061 
L 477.220848 383.655509 
L 478.873616 348.839733 
L 480.526384 366.735656 
L 482.179152 351.979244 
L 483.831921 391.136148 
L 485.484689 382.050709 
L 487.137457 399.518951 
L 488.790226 322.446848 
L 490.442994 375.834492 
L 492.095762 367.321265 
L 493.74853 395.922061 
L 495.401299 404.359644 
L 497.054067 353.999945 
L 498.706835 362.459869 
L 500.359604 385.430688 
L 502.012372 352.983402 
L 503.66514 400.200596 
L 505.317908 397.902419 
L 506.970677 405.241441 
L 508.623445 352.78616 
L 510.276213 388.364656 
L 511.928982 365.30167 
L 513.58175 377.996551 
L 515.234518 368.229718 
L 516.887286 386.140029 
L 518.540055 388.119884 
L 520.192823 405.940262 
L 521.845591 377.906939 
L 523.49836 388.369988 
L 525.151128 409.534937 
L 526.803896 402.796284 
L 528.456664 373.96307 
L 530.109433 377.661631 
L 531.762201 416.939554 
L 533.414969 370.002815 
L 535.067738 390.812296 
L 536.720506 370.840149 
L 538.373274 381.855839 
L 540.026042 375.382299 
L 541.678811 407.714098 
L 543.331579 402.766731 
L 544.984347 377.290026 
L 546.637116 359.569728 
L 548.289884 396.447472 
L 549.942652 392.611083 
L 551.59542 390.424634 
L 553.248189 367.838367 
L 556.553725 411.839245 
L 558.206494 388.527144 
L 559.859262 390.178877 
L 561.51203 371.630035 
L 563.164798 401.777549 
L 564.817567 384.764688 
L 566.470335 396.08716 
L 568.123103 375.410996 
L 569.775871 396.047295 
L 571.42864 392.914563 
L 573.081408 383.939703 
L 574.734176 402.476927 
L 576.386945 407.743312 
L 578.039713 394.482492 
L 579.692481 371.158276 
L 581.345249 372.30961 
L 582.998018 328.613428 
L 584.650786 366.067497 
L 586.303554 366.879668 
L 587.956323 382.473947 
L 589.609091 384.079593 
L 591.261859 399.228946 
L 592.914627 377.050474 
L 594.567396 390.73844 
L 596.220164 395.81646 
L 597.872932 393.099156 
L 599.525701 388.92577 
L 601.178469 378.665888 
L 602.831237 395.374904 
L 604.484005 375.046432 
L 606.136774 370.170145 
L 609.44231 390.830311 
L 611.095079 399.591353 
L 612.747847 405.053136 
L 614.400615 393.598679 
L 616.053383 404.914806 
L 617.706152 390.075264 
L 619.35892 368.763317 
L 621.011688 376.005933 
L 622.664457 380.101387 
L 624.317225 384.794633 
L 625.969993 357.896519 
L 627.622761 376.438223 
L 629.27553 404.994566 
L 630.928298 371.935711 
L 632.581066 362.485959 
L 634.233835 358.445522 
L 635.886603 384.799996 
L 637.539371 382.789211 
L 639.192139 389.952068 
L 640.844908 395.4872 
L 642.497676 362.570117 
L 644.150444 377.962219 
L 645.803213 345.641587 
L 647.455981 401.728172 
L 649.108749 354.927959 
L 650.761517 388.874155 
L 652.414286 395.309318 
L 654.067054 387.073509 
L 655.719822 398.127125 
L 657.372591 398.659519 
L 659.025359 384.104197 
L 660.678127 385.836132 
L 662.330895 394.816737 
L 663.983664 412.179963 
L 665.636432 413.769373 
L 667.2892 361.682219 
L 668.941969 349.575505 
L 670.594737 377.329388 
L 672.247505 414.612993 
L 673.900273 359.317267 
L 675.553042 409.355321 
L 677.20581 399.020324 
L 680.511347 344.013492 
L 682.164115 371.047209 
L 683.816883 373.246149 
L 685.469651 396.577509 
L 687.12242 395.450694 
L 688.775188 376.749682 
L 690.427956 386.235122 
L 692.080725 412.516791 
L 693.733493 386.325857 
L 695.386261 370.876986 
L 697.039029 404.31146 
L 698.691798 367.377385 
L 700.344566 375.000491 
L 701.997334 391.642623 
L 705.302871 378.837934 
L 706.955639 405.649512 
L 708.608407 398.729475 
L 710.261176 375.779154 
L 711.913944 375.947799 
L 713.566712 384.868853 
L 715.219481 379.856226 
L 716.872249 371.819064 
L 718.525017 391.056681 
L 720.177785 361.34123 
L 721.830554 378.679778 
L 723.483322 398.983355 
L 725.13609 391.464271 
L 726.788859 365.541342 
L 728.441627 367.587136 
L 730.094395 384.652678 
L 731.747163 353.58701 
L 733.399932 397.33894 
L 735.0527 368.373113 
L 736.705468 350.600988 
L 738.358237 395.304295 
L 740.011005 363.238309 
L 741.663773 407.279311 
L 743.316541 365.424548 
L 744.96931 405.802578 
L 746.622078 353.332295 
L 748.274846 335.684301 
L 749.927614 405.093783 
L 751.580383 400.705814 
L 753.233151 394.69762 
L 754.885919 393.090288 
L 756.538688 394.634764 
L 758.191456 401.7865 
L 759.844224 379.483628 
L 761.496992 388.93605 
L 763.149761 408.053441 
L 764.802529 389.324862 
L 766.455297 357.805434 
L 768.108066 412.345408 
L 769.760834 369.000289 
L 771.413602 383.944888 
L 773.06637 401.916126 
L 774.719139 403.078486 
L 776.371907 389.102525 
L 778.024675 388.585826 
L 779.677444 379.837599 
L 781.330212 383.93346 
L 782.98298 386.595663 
L 784.635748 403.891341 
L 786.288517 405.327381 
L 787.941285 388.234694 
L 789.594053 404.780975 
L 791.246822 323.186256 
L 792.89959 382.558932 
L 794.552358 386.042197 
L 796.205126 288.475023 
L 797.857895 402.257632 
L 799.510663 398.000904 
L 801.163431 388.720331 
L 802.8162 397.288776 
L 804.468968 326.627202 
L 806.121736 375.883737 
L 807.774504 411.277572 
L 809.427273 378.924288 
L 809.427273 378.924288 
" style="fill:none;stroke:#ff0000;stroke-linecap:round;stroke-width:1.75;"/>
   </g>
   <g id="line2d_34">
    <path clip-path="url(#p5809d49cad)" d="M 149.972727 404.99827 
L 154.931032 404.99827 
L 156.5838 374.221998 
L 158.236569 322.928211 
L 159.889337 343.445726 
L 161.542105 404.99827 
L 163.194874 404.99827 
L 164.847642 302.410697 
L 166.50041 251.11691 
L 168.153178 404.99827 
L 169.805947 312.669454 
L 171.458715 363.963241 
L 173.111483 271.634425 
L 174.764252 343.445726 
L 176.41702 404.99827 
L 178.069788 353.704483 
L 179.722556 374.221998 
L 181.375325 404.99827 
L 183.028093 374.221998 
L 184.680861 374.221998 
L 186.33363 384.480755 
L 187.986398 404.99827 
L 189.639166 374.221998 
L 191.291934 394.739512 
L 196.250239 394.739512 
L 197.903008 404.99827 
L 199.555776 343.445726 
L 201.208544 394.739512 
L 202.861312 333.186969 
L 204.514081 404.99827 
L 206.166849 404.99827 
L 207.819617 363.963241 
L 209.472386 404.99827 
L 211.125154 333.186969 
L 212.777922 394.739512 
L 214.43069 343.445726 
L 216.083459 384.480755 
L 217.736227 404.99827 
L 221.041763 404.99827 
L 222.694532 374.221998 
L 224.3473 312.669454 
L 226.000068 384.480755 
L 227.652837 404.99827 
L 230.958373 404.99827 
L 232.611141 322.928211 
L 234.26391 343.445726 
L 235.916678 404.99827 
L 239.222215 404.99827 
L 240.874983 374.221998 
L 242.527751 404.99827 
L 250.791593 404.99827 
L 252.444361 374.221998 
L 254.097129 404.99827 
L 255.749897 404.99827 
L 257.402666 363.963241 
L 259.055434 404.99827 
L 260.708202 374.221998 
L 262.360971 404.99827 
L 268.972044 404.99827 
L 270.624812 384.480755 
L 272.27758 404.99827 
L 273.930349 404.99827 
L 275.583117 343.445726 
L 277.235885 404.99827 
L 278.888653 404.99827 
L 280.541422 374.221998 
L 282.19419 333.186969 
L 283.846958 404.99827 
L 285.499727 404.99827 
L 287.152495 374.221998 
L 288.805263 271.634425 
L 290.458031 374.221998 
L 292.1108 404.99827 
L 293.763568 343.445726 
L 295.416336 333.186969 
L 297.069105 404.99827 
L 298.721873 353.704483 
L 302.027409 374.221998 
L 303.680178 404.99827 
L 305.332946 384.480755 
L 306.985714 343.445726 
L 308.638483 363.963241 
L 310.291251 343.445726 
L 311.944019 404.99827 
L 313.596787 302.410697 
L 315.249556 404.99827 
L 323.513397 404.99827 
L 325.166165 384.480755 
L 326.818934 394.739512 
L 328.471702 353.704483 
L 330.12447 404.99827 
L 331.777239 404.99827 
L 333.430007 302.410697 
L 335.082775 333.186969 
L 336.735543 404.99827 
L 340.04108 404.99827 
L 341.693848 394.739512 
L 343.346617 404.99827 
L 344.999385 384.480755 
L 348.304921 404.99827 
L 349.95769 394.739512 
L 351.610458 404.99827 
L 353.263226 404.99827 
L 354.915995 322.928211 
L 356.568763 302.410697 
L 358.221531 404.99827 
L 359.874299 353.704483 
L 361.527068 374.221998 
L 363.179836 374.221998 
L 364.832604 404.99827 
L 366.485373 353.704483 
L 368.138141 343.445726 
L 369.790909 292.15194 
L 371.443677 343.445726 
L 373.096446 343.445726 
L 374.749214 333.186969 
L 376.401982 353.704483 
L 378.054751 333.186969 
L 379.707519 404.99827 
L 381.360287 404.99827 
L 383.013055 374.221998 
L 384.665824 394.739512 
L 386.318592 343.445726 
L 387.97136 322.928211 
L 389.624129 404.99827 
L 391.276897 374.221998 
L 392.929665 404.99827 
L 394.582433 302.410697 
L 396.235202 404.99827 
L 401.193506 404.99827 
L 402.846275 374.221998 
L 404.499043 404.99827 
L 406.151811 404.99827 
L 411.110116 374.221998 
L 412.762884 374.221998 
L 414.415653 404.99827 
L 415.778352 -1 
M 416.364661 -1 
L 417.721189 394.739512 
L 419.373958 343.445726 
L 421.026726 394.739512 
L 422.679494 404.99827 
L 424.332262 404.99827 
L 425.985031 353.704483 
L 427.637799 404.99827 
L 434.248872 404.99827 
L 435.90164 322.928211 
L 437.554409 404.99827 
L 439.207177 322.928211 
L 440.859945 363.963241 
L 442.512714 343.445726 
L 444.165482 363.963241 
L 445.81825 404.99827 
L 449.123787 404.99827 
L 450.776555 363.963241 
L 452.429323 394.739512 
L 454.082092 404.99827 
L 457.387628 404.99827 
L 459.040396 302.410697 
L 460.693165 230.599396 
L 462.345933 322.928211 
L 463.998701 404.99827 
L 465.65147 322.928211 
L 467.304238 374.221998 
L 468.957006 404.99827 
L 470.609774 374.221998 
L 472.262543 404.99827 
L 473.915311 374.221998 
L 475.568079 374.221998 
L 477.220848 384.480755 
L 478.873616 343.445726 
L 480.526384 384.480755 
L 482.179152 271.634425 
L 483.831921 404.99827 
L 485.484689 384.480755 
L 487.137457 404.99827 
L 488.790226 312.669454 
L 490.442994 394.739512 
L 492.095762 322.928211 
L 493.74853 404.99827 
L 495.401299 404.99827 
L 497.054067 343.445726 
L 500.359604 384.480755 
L 502.012372 363.963241 
L 503.66514 394.739512 
L 505.317908 343.445726 
L 506.970677 404.99827 
L 508.623445 322.928211 
L 510.276213 394.739512 
L 511.928982 343.445726 
L 513.58175 322.928211 
L 515.234518 394.739512 
L 516.887286 292.15194 
L 518.540055 343.445726 
L 520.192823 404.99827 
L 521.845591 302.410697 
L 523.49836 404.99827 
L 525.151128 394.739512 
L 526.803896 404.99827 
L 528.456664 363.963241 
L 530.109433 363.963241 
L 531.762201 404.99827 
L 533.414969 374.221998 
L 535.067738 394.739512 
L 536.720506 322.928211 
L 538.373274 384.480755 
L 540.026042 374.221998 
L 541.678811 404.99827 
L 543.331579 404.99827 
L 546.637116 363.963241 
L 548.289884 404.99827 
L 549.942652 292.15194 
L 551.59542 404.99827 
L 553.248189 322.928211 
L 554.900957 394.739512 
L 556.553725 404.99827 
L 558.206494 363.963241 
L 559.859262 404.99827 
L 563.164798 404.99827 
L 564.817567 343.445726 
L 566.470335 404.99827 
L 568.123103 374.221998 
L 569.775871 404.99827 
L 573.081408 404.99827 
L 574.734176 322.928211 
L 576.386945 404.99827 
L 578.039713 394.739512 
L 579.692481 343.445726 
L 581.345249 343.445726 
L 582.998018 333.186969 
L 584.650786 302.410697 
L 586.303554 374.221998 
L 587.956323 394.739512 
L 589.609091 404.99827 
L 591.261859 404.99827 
L 592.914627 363.963241 
L 594.567396 404.99827 
L 597.872932 404.99827 
L 599.525701 343.445726 
L 601.178469 384.480755 
L 602.831237 322.928211 
L 604.484005 394.739512 
L 606.136774 302.410697 
L 607.789542 343.445726 
L 609.44231 374.221998 
L 611.095079 374.221998 
L 612.747847 404.99827 
L 614.400615 343.445726 
L 616.053383 404.99827 
L 617.706152 404.99827 
L 619.35892 353.704483 
L 621.011688 394.739512 
L 622.664457 404.99827 
L 624.317225 404.99827 
L 627.622761 322.928211 
L 629.27553 404.99827 
L 630.928298 333.186969 
L 632.581066 404.99827 
L 634.233835 251.11691 
L 635.886603 404.99827 
L 642.497676 363.963241 
L 644.150444 281.893182 
L 645.803213 312.669454 
L 647.455981 404.99827 
L 649.108749 343.445726 
L 650.761517 404.99827 
L 655.719822 404.99827 
L 657.372591 353.704483 
L 659.025359 404.99827 
L 660.678127 404.99827 
L 662.330895 353.704483 
L 663.983664 404.99827 
L 665.636432 404.99827 
L 667.2892 333.186969 
L 668.941969 322.928211 
L 670.594737 374.221998 
L 672.247505 404.99827 
L 673.900273 322.928211 
L 675.553042 404.99827 
L 677.20581 394.739512 
L 678.858578 353.704483 
L 680.511347 353.704483 
L 682.164115 292.15194 
L 683.816883 384.480755 
L 685.469651 404.99827 
L 687.12242 384.480755 
L 690.427956 404.99827 
L 692.080725 343.445726 
L 693.733493 404.99827 
L 695.386261 394.739512 
L 697.039029 404.99827 
L 698.691798 363.963241 
L 700.344566 404.99827 
L 701.997334 343.445726 
L 703.650103 374.221998 
L 705.302871 384.480755 
L 708.608407 322.928211 
L 710.261176 374.221998 
L 711.913944 404.99827 
L 713.566712 404.99827 
L 715.219481 374.221998 
L 716.872249 322.928211 
L 718.525017 404.99827 
L 720.177785 404.99827 
L 721.830554 302.410697 
L 723.483322 404.99827 
L 725.13609 374.221998 
L 726.788859 281.893182 
L 728.441627 312.669454 
L 730.094395 384.480755 
L 731.747163 343.445726 
L 733.399932 404.99827 
L 735.0527 384.480755 
L 736.705468 179.305609 
L 738.358237 374.221998 
L 740.011005 343.445726 
L 741.663773 404.99827 
L 743.316541 384.480755 
L 744.96931 404.99827 
L 746.622078 271.634425 
L 748.274846 343.445726 
L 751.580383 404.99827 
L 753.233151 394.739512 
L 754.885919 404.99827 
L 756.538688 404.99827 
L 758.191456 343.445726 
L 759.844224 384.480755 
L 763.149761 404.99827 
L 764.802529 394.739512 
L 766.455297 374.221998 
L 768.108066 404.99827 
L 769.760834 384.480755 
L 771.413602 384.480755 
L 773.06637 404.99827 
L 774.719139 394.739512 
L 776.371907 343.445726 
L 778.024675 394.739512 
L 779.677444 374.221998 
L 781.330212 404.99827 
L 782.98298 281.893182 
L 784.635748 404.99827 
L 789.594053 404.99827 
L 791.246822 333.186969 
L 792.89959 353.704483 
L 794.552358 404.99827 
L 796.205126 281.893182 
L 797.857895 404.99827 
L 799.510663 363.963241 
L 801.163431 404.99827 
L 802.8162 404.99827 
L 804.468968 312.669454 
L 806.121736 394.739512 
L 807.774504 404.99827 
L 809.427273 353.704483 
L 809.427273 353.704483 
" style="fill:none;stroke:#0000ff;stroke-linecap:round;stroke-width:1.75;"/>
   </g>
   <g id="patch_3">
    <path d="M 117 441 
L 117 60.48 
" style="fill:none;"/>
   </g>
   <g id="patch_4">
    <path d="M 842.4 441 
L 842.4 60.48 
" style="fill:none;"/>
   </g>
   <g id="patch_5">
    <path d="M 117 441 
L 842.4 441 
" style="fill:none;"/>
   </g>
   <g id="patch_6">
    <path d="M 117 60.48 
L 842.4 60.48 
" style="fill:none;"/>
   </g>
   <g id="text_17">
    <!-- y_pred, y_test -->
    <defs>
     <path d="M 6.203125 -19.96875 
L 5.21875 -11.71875 
Q 8.109375 -12.5 10.25 -12.5 
Q 13.1875 -12.5 14.9375 -11.515625 
Q 16.703125 -10.546875 17.828125 -8.796875 
Q 18.65625 -7.46875 20.515625 -2.25 
Q 20.75 -1.515625 21.296875 -0.09375 
L 1.609375 51.859375 
L 11.078125 51.859375 
L 21.875 21.828125 
Q 23.96875 16.109375 25.640625 9.8125 
Q 27.15625 15.875 29.25 21.625 
L 40.328125 51.859375 
L 49.125 51.859375 
L 29.390625 -0.875 
Q 26.21875 -9.421875 24.46875 -12.640625 
Q 22.125 -17 19.09375 -19.015625 
Q 16.0625 -21.046875 11.859375 -21.046875 
Q 9.328125 -21.046875 6.203125 -19.96875 
z
" id="ArialMT-79"/>
     <path d="M -1.515625 -19.875 
L -1.515625 -13.53125 
L 56.734375 -13.53125 
L 56.734375 -19.875 
z
" id="ArialMT-5f"/>
     <path d="M 6.59375 -19.875 
L 6.59375 51.859375 
L 14.59375 51.859375 
L 14.59375 45.125 
Q 17.4375 49.078125 21 51.046875 
Q 24.5625 53.03125 29.640625 53.03125 
Q 36.28125 53.03125 41.359375 49.609375 
Q 46.4375 46.1875 49.015625 39.953125 
Q 51.609375 33.734375 51.609375 26.3125 
Q 51.609375 18.359375 48.75 11.984375 
Q 45.90625 5.609375 40.453125 2.21875 
Q 35.015625 -1.171875 29 -1.171875 
Q 24.609375 -1.171875 21.109375 0.6875 
Q 17.625 2.546875 15.375 5.375 
L 15.375 -19.875 
z
M 14.546875 25.640625 
Q 14.546875 15.625 18.59375 10.84375 
Q 22.65625 6.0625 28.421875 6.0625 
Q 34.28125 6.0625 38.453125 11.015625 
Q 42.625 15.96875 42.625 26.375 
Q 42.625 36.28125 38.546875 41.203125 
Q 34.46875 46.140625 28.8125 46.140625 
Q 23.1875 46.140625 18.859375 40.890625 
Q 14.546875 35.640625 14.546875 25.640625 
z
" id="ArialMT-70"/>
     <path d="M 6.5 0 
L 6.5 51.859375 
L 14.40625 51.859375 
L 14.40625 44 
Q 17.4375 49.515625 20 51.265625 
Q 22.5625 53.03125 25.640625 53.03125 
Q 30.078125 53.03125 34.671875 50.203125 
L 31.640625 42.046875 
Q 28.421875 43.953125 25.203125 43.953125 
Q 22.3125 43.953125 20.015625 42.21875 
Q 17.71875 40.484375 16.75 37.40625 
Q 15.28125 32.71875 15.28125 27.15625 
L 15.28125 0 
z
" id="ArialMT-72"/>
     <path d="M 42.09375 16.703125 
L 51.171875 15.578125 
Q 49.03125 7.625 43.21875 3.21875 
Q 37.40625 -1.171875 28.375 -1.171875 
Q 17 -1.171875 10.328125 5.828125 
Q 3.65625 12.84375 3.65625 25.484375 
Q 3.65625 38.578125 10.390625 45.796875 
Q 17.140625 53.03125 27.875 53.03125 
Q 38.28125 53.03125 44.875 45.953125 
Q 51.46875 38.875 51.46875 26.03125 
Q 51.46875 25.25 51.421875 23.6875 
L 12.75 23.6875 
Q 13.234375 15.140625 17.578125 10.59375 
Q 21.921875 6.0625 28.421875 6.0625 
Q 33.25 6.0625 36.671875 8.59375 
Q 40.09375 11.140625 42.09375 16.703125 
z
M 13.234375 30.90625 
L 42.1875 30.90625 
Q 41.609375 37.453125 38.875 40.71875 
Q 34.671875 45.796875 27.984375 45.796875 
Q 21.921875 45.796875 17.796875 41.75 
Q 13.671875 37.703125 13.234375 30.90625 
z
" id="ArialMT-65"/>
     <path d="M 40.234375 0 
L 40.234375 6.546875 
Q 35.296875 -1.171875 25.734375 -1.171875 
Q 19.53125 -1.171875 14.328125 2.25 
Q 9.125 5.671875 6.265625 11.796875 
Q 3.421875 17.921875 3.421875 25.875 
Q 3.421875 33.640625 6 39.96875 
Q 8.59375 46.296875 13.765625 49.65625 
Q 18.953125 53.03125 25.34375 53.03125 
Q 30.03125 53.03125 33.6875 51.046875 
Q 37.359375 49.078125 39.65625 45.90625 
L 39.65625 71.578125 
L 48.390625 71.578125 
L 48.390625 0 
z
M 12.453125 25.875 
Q 12.453125 15.921875 16.640625 10.984375 
Q 20.84375 6.0625 26.5625 6.0625 
Q 32.328125 6.0625 36.34375 10.765625 
Q 40.375 15.484375 40.375 25.140625 
Q 40.375 35.796875 36.265625 40.765625 
Q 32.171875 45.75 26.171875 45.75 
Q 20.3125 45.75 16.375 40.96875 
Q 12.453125 36.1875 12.453125 25.875 
z
" id="ArialMT-64"/>
     <path d="M 8.890625 0 
L 8.890625 10.015625 
L 18.890625 10.015625 
L 18.890625 0 
Q 18.890625 -5.515625 16.9375 -8.90625 
Q 14.984375 -12.3125 10.75 -14.15625 
L 8.296875 -10.40625 
Q 11.078125 -9.1875 12.390625 -6.8125 
Q 13.71875 -4.4375 13.875 0 
z
" id="ArialMT-2c"/>
     <path id="ArialMT-20"/>
     <path d="M 25.78125 7.859375 
L 27.046875 0.09375 
Q 23.34375 -0.6875 20.40625 -0.6875 
Q 15.625 -0.6875 12.984375 0.828125 
Q 10.359375 2.34375 9.28125 4.8125 
Q 8.203125 7.28125 8.203125 15.1875 
L 8.203125 45.015625 
L 1.765625 45.015625 
L 1.765625 51.859375 
L 8.203125 51.859375 
L 8.203125 64.703125 
L 16.9375 69.96875 
L 16.9375 51.859375 
L 25.78125 51.859375 
L 25.78125 45.015625 
L 16.9375 45.015625 
L 16.9375 14.703125 
Q 16.9375 10.9375 17.40625 9.859375 
Q 17.875 8.796875 18.921875 8.15625 
Q 19.96875 7.515625 21.921875 7.515625 
Q 23.390625 7.515625 25.78125 7.859375 
z
" id="ArialMT-74"/>
     <path d="M 3.078125 15.484375 
L 11.765625 16.84375 
Q 12.5 11.625 15.84375 8.84375 
Q 19.1875 6.0625 25.203125 6.0625 
Q 31.25 6.0625 34.171875 8.515625 
Q 37.109375 10.984375 37.109375 14.3125 
Q 37.109375 17.28125 34.515625 19 
Q 32.71875 20.171875 25.53125 21.96875 
Q 15.875 24.421875 12.140625 26.203125 
Q 8.40625 27.984375 6.46875 31.125 
Q 4.546875 34.28125 4.546875 38.09375 
Q 4.546875 41.546875 6.125 44.5 
Q 7.71875 47.46875 10.453125 49.421875 
Q 12.5 50.921875 16.03125 51.96875 
Q 19.578125 53.03125 23.640625 53.03125 
Q 29.734375 53.03125 34.34375 51.265625 
Q 38.96875 49.515625 41.15625 46.5 
Q 43.359375 43.5 44.1875 38.484375 
L 35.59375 37.3125 
Q 35.015625 41.3125 32.203125 43.546875 
Q 29.390625 45.796875 24.265625 45.796875 
Q 18.21875 45.796875 15.625 43.796875 
Q 13.03125 41.796875 13.03125 39.109375 
Q 13.03125 37.40625 14.109375 36.03125 
Q 15.1875 34.625 17.484375 33.6875 
Q 18.796875 33.203125 25.25 31.453125 
Q 34.578125 28.953125 38.25 27.359375 
Q 41.9375 25.78125 44.03125 22.75 
Q 46.140625 19.734375 46.140625 15.234375 
Q 46.140625 10.84375 43.578125 6.953125 
Q 41.015625 3.078125 36.171875 0.953125 
Q 31.34375 -1.171875 25.25 -1.171875 
Q 15.140625 -1.171875 9.84375 3.03125 
Q 4.546875 7.234375 3.078125 15.484375 
z
" id="ArialMT-73"/>
    </defs>
    <g style="fill:#262626;" transform="translate(442.015312 54.48)scale(0.12 -0.12)">
     <use xlink:href="#ArialMT-79"/>
     <use x="50" xlink:href="#ArialMT-5f"/>
     <use x="105.615234" xlink:href="#ArialMT-70"/>
     <use x="161.230469" xlink:href="#ArialMT-72"/>
     <use x="194.53125" xlink:href="#ArialMT-65"/>
     <use x="250.146484" xlink:href="#ArialMT-64"/>
     <use x="305.761719" xlink:href="#ArialMT-2c"/>
     <use x="333.544922" xlink:href="#ArialMT-20"/>
     <use x="361.328125" xlink:href="#ArialMT-79"/>
     <use x="411.328125" xlink:href="#ArialMT-5f"/>
     <use x="466.943359" xlink:href="#ArialMT-74"/>
     <use x="494.726562" xlink:href="#ArialMT-65"/>
     <use x="550.341797" xlink:href="#ArialMT-73"/>
     <use x="600.341797" xlink:href="#ArialMT-74"/>
    </g>
   </g>
  </g>
 </g>
 <defs>
  <clipPath id="p5809d49cad">
   <rect height="380.52" width="725.4" x="117" y="60.48"/>
  </clipPath>
 </defs>
</svg>
